<svg width="135" height="35" viewBox="0 0 135 35" fill="none" xmlns="http://www.w3.org/2000/svg">
<g clip-path="url(#clip0_191_3527)">
<path fill-rule="evenodd" clip-rule="evenodd" d="M19.5468 6.13788V0.84985H0.22108V6.50093H11.7063L0.0395508 21.7462V27.0327H19.7299V21.3816H7.87846L19.5468 6.13788ZM29.9397 8.07313C24.8349 8.07313 22.1371 10.7708 21.7363 14.0889H27.0227C27.1316 13.7968 27.351 13.5427 27.6068 13.287C28.0439 12.886 28.7369 12.4488 29.9397 12.4488C31.7992 12.4488 32.8568 13.5427 32.8568 15.1827V15.5474H28.6644C23.5594 15.5474 21.007 18.0999 21.007 21.5631C21.007 24.8448 23.5594 27.3974 27.9351 27.3974C29.6493 27.3974 30.961 26.96 31.8009 26.4123C32.2744 26.1203 32.7116 25.792 33.0399 25.391H33.2215L33.5861 27.0311H38.3265V15.1465C38.3265 10.9902 35.3731 8.07313 29.9397 8.07313ZM32.8568 19.5584C32.8568 21.7462 31.3984 23.2048 29.029 23.2048C27.3888 23.2048 26.4765 22.3302 26.4765 21.2001C26.4765 20.0698 27.351 19.1954 29.3937 19.1954H32.8568V19.5584ZM52.1826 8.07313C50.3231 8.07313 49.0841 8.61929 48.2442 9.16705C47.7707 9.49537 47.3697 9.86001 47.0777 10.2609H46.8961L46.5315 8.43777H41.7913V34.1943H47.2608V25.5756H47.4424C47.7707 25.9041 48.1353 26.2324 48.5725 26.4865C49.3382 26.96 50.541 27.3974 52.1826 27.3974C57.1045 27.3974 61.1155 23.3863 61.1155 17.7353C61.1155 12.0841 57.1045 8.07313 52.1826 8.07313ZM51.4534 22.2939C49.084 22.2939 47.2608 20.5071 47.2608 17.7368C47.2608 14.9649 49.084 13.1796 51.4534 13.1796C53.8227 13.1796 55.6459 14.9665 55.6459 17.7368C55.6459 20.5071 53.8227 22.2939 51.4534 22.2939ZM65.6741 5.88532V8.43777H62.7571V13.5427H65.6741V27.0342H65.9552L75.1547 8.43777H71.1438V6.61458C71.1438 5.77639 71.581 5.33914 72.4192 5.33914H75.1531V0.780396H70.9607C67.461 0.780396 65.6741 2.56727 65.6741 5.88532ZM77.8887 27.0342H83.3583V0.84985H77.8887V27.0342ZM95.939 8.07313C90.2879 8.07313 86.2769 12.0841 86.2769 17.7353C86.2769 23.3863 90.2879 27.3974 95.939 27.3974C101.59 27.3974 105.601 23.3863 105.601 17.7353C105.601 12.0841 101.59 8.07313 95.939 8.07313ZM95.939 22.2939C93.5697 22.2939 91.7465 20.5071 91.7465 17.7368C91.7465 14.9649 93.5697 13.1796 95.939 13.1796C98.3083 13.1796 100.132 14.9665 100.132 17.7368C100.132 20.5071 98.3083 22.2939 95.939 22.2939ZM129.303 8.43777L126.75 19.0122H126.021L123.287 8.43777H117.817L115.082 19.0122H114.352L111.8 8.43777H106.149L110.889 27.0342H117.634L120.187 16.6428H120.916L123.468 27.0342H130.213L134.954 8.43777H129.303Z" fill="#0A5FFA"/>
</g>
<defs>
<clipPath id="clip0_191_3527">
<rect width="135" height="33.4391" fill="white" transform="translate(0 0.780396)"/>
</clipPath>
</defs>
</svg>
