<svg width="180" height="45" viewBox="0 0 180 45" fill="none" xmlns="http://www.w3.org/2000/svg">
<g clip-path="url(#clip0_160_5531)">
<path fill-rule="evenodd" clip-rule="evenodd" d="M26.0624 7.14331V0.0926062H0.294773V7.62738H15.6085L0.0527344 27.9543V35.0031H26.3065V27.4683H10.5046L26.0624 7.14331ZM39.9197 9.72365C33.1132 9.72365 29.5161 13.3206 28.9817 17.7446H36.0302C36.1754 17.3552 36.468 17.0164 36.809 16.6754C37.3919 16.1408 38.3159 15.5578 39.9197 15.5578C42.399 15.5578 43.8091 17.0164 43.8091 19.2031V19.6893H38.2192C31.4125 19.6893 28.0093 23.0927 28.0093 27.7102C28.0093 32.0859 31.4125 35.4893 37.2468 35.4893C39.5324 35.4893 41.2814 34.9062 42.4012 34.1759C43.0325 33.7866 43.6155 33.3488 44.0532 32.8142H44.2953L44.7815 35.0009H51.102V19.1548C51.102 13.6131 47.1641 9.72365 39.9197 9.72365ZM43.8091 25.0373C43.8091 27.9544 41.8645 29.8992 38.7054 29.8992C36.5185 29.8992 35.3019 28.7331 35.3019 27.2262C35.3019 25.7192 36.468 24.5533 39.1916 24.5533H43.8091V25.0373ZM69.5767 9.72365C67.0975 9.72365 65.4454 10.4519 64.3256 11.1822C63.6942 11.62 63.1596 12.1062 62.7703 12.6407H62.5282L62.042 10.2098H55.7217V44.5519H63.0144V33.0603H63.2565C63.6942 33.4982 64.1804 33.936 64.7634 34.2748C65.7842 34.9062 67.388 35.4893 69.5767 35.4893C76.1393 35.4893 81.4873 30.1413 81.4873 22.6065C81.4873 15.0717 76.1393 9.72365 69.5767 9.72365ZM68.6045 28.6847C65.4454 28.6847 63.0144 26.3023 63.0144 22.6085C63.0144 18.9127 65.4454 16.5323 68.6045 16.5323C71.7636 16.5323 74.1945 18.9147 74.1945 22.6085C74.1945 26.3023 71.7636 28.6847 68.6045 28.6847ZM87.5655 6.80656V10.2098H83.6761V17.0164H87.5655V35.0051H87.9402L100.206 10.2098H94.8584V7.77891C94.8584 6.66133 95.4413 6.07833 96.5589 6.07833H100.204V0H94.6143C89.9481 0 87.5655 2.3825 87.5655 6.80656ZM103.852 35.0051H111.144V0.0926062H103.852V35.0051ZM127.919 9.72365C120.384 9.72365 115.036 15.0717 115.036 22.6065C115.036 30.1413 120.384 35.4893 127.919 35.4893C135.453 35.4893 140.801 30.1413 140.801 22.6065C140.801 15.0717 135.453 9.72365 127.919 9.72365ZM127.919 28.6847C124.76 28.6847 122.329 26.3023 122.329 22.6085C122.329 18.9127 124.76 16.5323 127.919 16.5323C131.078 16.5323 133.509 18.9147 133.509 22.6085C133.509 26.3023 131.078 28.6847 127.919 28.6847ZM172.403 10.2098L169 24.309H168.028L164.382 10.2098H157.09L153.442 24.309H152.47L149.067 10.2098H141.532L147.852 35.0051H156.845L160.249 21.1499H161.221L164.624 35.0051H173.618L179.938 10.2098H172.403Z" fill="#F0F0F2"/>
</g>
<defs>
<clipPath id="clip0_160_5531">
<rect width="180" height="44.5855" fill="white"/>
</clipPath>
</defs>
</svg>
