<svg width="51" height="98" viewBox="0 0 51 98" fill="none" xmlns="http://www.w3.org/2000/svg">
<path d="M23.258 1.1791V10.267C20.3044 10.8728 17.9946 12.1224 16.3285 14.0157C14.6624 15.909 13.8293 18.0674 13.8293 20.4909C13.8293 22.0812 14.0565 23.558 14.5109 24.9212L8.94456 28.102C8.71736 27.4961 8.56589 26.9281 8.49016 26.398C8.41443 25.7921 8.37656 25.1863 8.37656 24.5804C8.37656 23.3687 8.71736 22.3463 9.39895 21.5132C10.0805 20.6045 10.9136 19.9229 11.8981 19.4685C12.9584 19.0141 13.9808 18.7869 14.9653 18.7869C17.5402 18.7869 19.6607 19.6578 21.3268 21.3997C23.0687 23.1415 23.9396 25.1484 23.9396 27.4204C23.9396 29.9195 23.0687 32.0401 21.3268 33.7819C19.6607 35.5237 17.5402 36.3947 14.9653 36.3947C12.8448 36.3947 11.0272 35.7888 9.51255 34.5771C7.9979 33.2896 6.82405 31.6235 5.99099 29.5788C5.23367 27.4582 4.85501 25.1863 4.85501 22.7628C4.85501 20.7938 5.15793 18.6733 5.76379 16.4013C6.44539 14.0536 7.46777 11.8195 8.83096 9.69899C10.2699 7.57848 12.1632 5.7609 14.5109 4.24625C16.8586 2.65587 19.7743 1.63349 23.258 1.1791ZM45.1825 1.1791V10.267C42.1532 10.8728 39.8055 12.1224 38.1394 14.0157C36.4733 15.909 35.6402 18.0674 35.6402 20.4909C35.6402 22.0812 35.8674 23.558 36.3218 24.9212L30.7555 28.102C30.604 27.4961 30.4904 26.9281 30.4147 26.398C30.339 25.7921 30.3011 25.1863 30.3011 24.5804C30.3011 23.3687 30.604 22.3463 31.2099 21.5132C31.8915 20.6045 32.7245 19.9229 33.7091 19.4685C34.7693 19.0141 35.7917 18.7869 36.7762 18.7869C39.3511 18.7869 41.4716 19.6578 43.1377 21.3997C44.8796 23.1415 45.7505 25.1484 45.7505 27.4204C45.7505 29.9195 44.8796 32.0401 43.1377 33.7819C41.4716 35.5237 39.3511 36.3947 36.7762 36.3947C34.6557 36.3947 32.8381 35.7888 31.3235 34.5771C29.8088 33.2896 28.635 31.6235 27.8019 29.5788C27.0446 27.4582 26.6659 25.1863 26.6659 22.7628C26.6659 20.7938 26.9689 18.6733 27.5747 16.4013C28.2563 14.0536 29.2787 11.8195 30.6419 9.69899C32.0808 7.57848 33.9741 5.7609 36.3218 4.24625C38.7453 2.65587 41.6988 1.63349 45.1825 1.1791Z" fill="#9DBFFD"/>
</svg>
