<svg width="48" height="46" viewBox="0 0 48 46" fill="none" xmlns="http://www.w3.org/2000/svg">
<rect width="48" height="46" rx="8" fill="#FDEEAB"/>
<path d="M15 16V15.5C14.8674 15.5 14.7402 15.5527 14.6464 15.6464C14.5527 15.7402 14.5 15.8674 14.5 16H15ZM33 16H33.5C33.5 15.8674 33.4473 15.7402 33.3536 15.6464C33.2598 15.5527 33.1326 15.5 33 15.5V16ZM15 17H33V15.5H15V17ZM32 16V28H33.5V16H32ZM31 29L17 29.0607V30.5H31V29ZM16 28V16H14.5V28H16ZM17 29.0607C16.6022 29.0607 16 29 16 28.5C16 28 16 28.3978 16 28H14.5C14.5 28.663 14.7634 29.2989 15.2322 29.7678C15.7011 30.2366 16.337 30.5 17 30.5V29.0607ZM32 28C32 28.3978 32 29 31.5 29C31 29 31.5 29 31 29V30.5C31.663 30.5 32.2989 30.2366 32.7678 29.7678C33.2366 29.2989 33.5 28.663 33.5 28H32Z" fill="#3D414D"/>
<path d="M15.5 16.5L24 25L32.5 16.5" stroke="#3D414D" stroke-width="1.5" stroke-linecap="round" stroke-linejoin="round"/>
</svg>
