<svg width="48" height="46" viewBox="0 0 48 46" fill="none" xmlns="http://www.w3.org/2000/svg">
<rect width="48" height="46" rx="8" fill="#6C9FFC"/>
<path d="M27.999 19.5H29.999C29.999 16.663 27.244 15.369 24.999 15.071V13H22.999V15.071C20.754 15.369 17.999 16.663 17.999 19.5C17.999 22.206 20.665 23.613 22.999 23.93V28.9C21.551 28.649 19.999 27.876 19.999 26.5H17.999C17.999 29.089 20.424 30.619 22.999 30.936V33H24.999V30.93C27.244 30.632 29.999 29.337 29.999 26.5C29.999 23.663 27.244 22.369 24.999 22.071V17.1C26.329 17.339 27.999 18.041 27.999 19.5ZM19.999 19.5C19.999 18.041 21.669 17.339 22.999 17.1V21.899C21.628 21.646 19.999 20.897 19.999 19.5ZM27.999 26.5C27.999 27.959 26.329 28.661 24.999 28.9V24.1C26.329 24.339 27.999 25.041 27.999 26.5Z" fill="#3D414D"/>
</svg>
