<svg width="48" height="46" viewBox="0 0 48 46" fill="none" xmlns="http://www.w3.org/2000/svg">
<rect width="48" height="46" rx="8" fill="#E4FDB0"/>
<path d="M24 33.5C18.21 33.5 13.5 28.79 13.5 23C13.5 17.21 18.21 12.5 24 12.5C29.79 12.5 34.5 17.21 34.5 23C34.5 28.79 29.79 33.5 24 33.5ZM24 14C19.035 14 15 18.035 15 23C15 27.965 19.035 32 24 32C28.965 32 33 27.965 33 23C33 18.035 28.965 14 24 14Z" fill="#3D414D"/>
<path d="M27 26.75C26.865 26.75 26.73 26.72 26.61 26.645L22.86 24.395C22.7494 24.3277 22.6582 24.2329 22.5951 24.1199C22.532 24.0069 22.4993 23.8794 22.5 23.75V17.75C22.5 17.33 22.83 17 23.25 17C23.67 17 24 17.33 24 17.75V23.33L27.39 25.355C27.5296 25.4406 27.6376 25.5694 27.6974 25.7218C27.7573 25.8742 27.7658 26.042 27.7217 26.1997C27.6776 26.3575 27.5833 26.4965 27.4531 26.5958C27.3228 26.6951 27.1638 26.7492 27 26.75Z" fill="#3D414D"/>
</svg>
