<svg width="265" height="156" viewBox="0 0 265 156" fill="none" xmlns="http://www.w3.org/2000/svg">
<g filter="url(#filter0_d_160_5676)">
<rect x="19" y="20" width="226" height="116" rx="8" fill="white"/>
<path d="M37.892 49V40.6H38.924V49H37.892ZM35.288 41.584V40.6H41.516V41.584H35.288ZM44.1279 49.156C43.5439 49.156 43.0279 49.024 42.5799 48.76C42.1319 48.488 41.7799 48.116 41.5239 47.644C41.2679 47.164 41.1399 46.612 41.1399 45.988C41.1399 45.364 41.2679 44.816 41.5239 44.344C41.7799 43.864 42.1319 43.492 42.5799 43.228C43.0279 42.964 43.5439 42.832 44.1279 42.832C44.7199 42.832 45.2399 42.964 45.6879 43.228C46.1359 43.492 46.4879 43.864 46.7439 44.344C46.9999 44.816 47.1279 45.364 47.1279 45.988C47.1279 46.612 46.9999 47.164 46.7439 47.644C46.4879 48.116 46.1359 48.488 45.6879 48.76C45.2399 49.024 44.7199 49.156 44.1279 49.156ZM44.1279 48.184C44.5199 48.184 44.8599 48.096 45.1479 47.92C45.4439 47.736 45.6759 47.48 45.8439 47.152C46.0119 46.816 46.0959 46.428 46.0959 45.988C46.0959 45.54 46.0119 45.156 45.8439 44.836C45.6759 44.508 45.4439 44.256 45.1479 44.08C44.8599 43.896 44.5199 43.804 44.1279 43.804C43.7439 43.804 43.4039 43.896 43.1079 44.08C42.8119 44.256 42.5799 44.508 42.4119 44.836C42.2439 45.156 42.1599 45.54 42.1599 45.988C42.1599 46.428 42.2439 46.816 42.4119 47.152C42.5799 47.48 42.8119 47.736 43.1079 47.92C43.4039 48.096 43.7439 48.184 44.1279 48.184ZM50.4473 49C49.9273 49 49.5033 48.836 49.1753 48.508C48.8473 48.172 48.6833 47.72 48.6833 47.152V41.368H49.7033V47.068C49.7033 47.412 49.7793 47.66 49.9313 47.812C50.0833 47.956 50.3273 48.028 50.6633 48.028H51.3833L51.4433 48.16V49H50.4473ZM47.6513 43.948V42.988H51.4433V43.948H47.6513ZM54.4464 49.156C54.0304 49.156 53.6584 49.076 53.3304 48.916C53.0104 48.756 52.7584 48.536 52.5744 48.256C52.3904 47.968 52.2984 47.64 52.2984 47.272C52.2984 46.744 52.4864 46.316 52.8624 45.988C53.2464 45.66 53.7744 45.468 54.4464 45.412L56.7624 45.244V46.156L54.6504 46.324C54.2104 46.356 53.8824 46.452 53.6664 46.612C53.4584 46.764 53.3544 46.98 53.3544 47.26C53.3544 47.524 53.4664 47.744 53.6904 47.92C53.9144 48.096 54.2024 48.184 54.5544 48.184C54.9144 48.184 55.2424 48.1 55.5384 47.932C55.8344 47.764 56.0664 47.54 56.2344 47.26C56.4104 46.98 56.4984 46.668 56.4984 46.324V45.352C56.4984 44.896 56.3544 44.52 56.0664 44.224C55.7864 43.928 55.4104 43.78 54.9384 43.78C54.5704 43.78 54.2544 43.872 53.9904 44.056C53.7264 44.232 53.5464 44.48 53.4504 44.8H53.3184L52.4304 44.512C52.6064 43.976 52.9144 43.56 53.3544 43.264C53.7944 42.968 54.3264 42.82 54.9504 42.82C55.7664 42.82 56.3944 43.064 56.8344 43.552C57.2824 44.04 57.5064 44.728 57.5064 45.616V49H56.5464V47.248L56.9064 47.44C56.8104 47.768 56.6384 48.064 56.3904 48.328C56.1504 48.584 55.8624 48.788 55.5264 48.94C55.1984 49.084 54.8384 49.156 54.4464 49.156ZM59.2666 49V40.36L60.2506 40.24L60.2866 40.336V49H59.2666ZM64.811 49V40.6H65.831V49H64.811ZM65.339 45.304V44.308H69.671V45.304H65.339ZM65.339 41.584V40.6H70.031V41.584H65.339ZM73.7529 49.156C73.1689 49.156 72.6529 49.024 72.2049 48.76C71.7569 48.488 71.4049 48.116 71.1489 47.644C70.8929 47.164 70.7649 46.612 70.7649 45.988C70.7649 45.364 70.8929 44.816 71.1489 44.344C71.4049 43.864 71.7569 43.492 72.2049 43.228C72.6529 42.964 73.1689 42.832 73.7529 42.832C74.3449 42.832 74.8649 42.964 75.3129 43.228C75.7609 43.492 76.1129 43.864 76.3689 44.344C76.6249 44.816 76.7529 45.364 76.7529 45.988C76.7529 46.612 76.6249 47.164 76.3689 47.644C76.1129 48.116 75.7609 48.488 75.3129 48.76C74.8649 49.024 74.3449 49.156 73.7529 49.156ZM73.7529 48.184C74.1449 48.184 74.4849 48.096 74.7729 47.92C75.0689 47.736 75.3009 47.48 75.4689 47.152C75.6369 46.816 75.7209 46.428 75.7209 45.988C75.7209 45.54 75.6369 45.156 75.4689 44.836C75.3009 44.508 75.0689 44.256 74.7729 44.08C74.4849 43.896 74.1449 43.804 73.7529 43.804C73.3689 43.804 73.0289 43.896 72.7329 44.08C72.4369 44.256 72.2049 44.508 72.0369 44.836C71.8689 45.156 71.7849 45.54 71.7849 45.988C71.7849 46.428 71.8689 46.816 72.0369 47.152C72.2049 47.48 72.4369 47.736 72.7329 47.92C73.0289 48.096 73.3689 48.184 73.7529 48.184ZM78.0387 49V42.988H79.0227V44.68L78.7347 44.5C78.8787 44.036 79.1467 43.668 79.5387 43.396C79.9307 43.124 80.3707 42.988 80.8587 42.988H81.4707V43.948H80.7027C80.3747 43.948 80.0867 44.028 79.8387 44.188C79.5987 44.34 79.4067 44.556 79.2627 44.836C79.1267 45.108 79.0587 45.428 79.0587 45.796V49H78.0387ZM82.398 49V42.988H83.382V44.656L83.13 44.428C83.242 44.1 83.414 43.82 83.646 43.588C83.878 43.348 84.15 43.164 84.462 43.036C84.774 42.9 85.102 42.832 85.446 42.832C85.966 42.832 86.418 42.98 86.802 43.276C87.186 43.572 87.438 44 87.558 44.56L87.138 44.548C87.242 44.204 87.414 43.904 87.654 43.648C87.902 43.392 88.198 43.192 88.542 43.048C88.886 42.904 89.258 42.832 89.658 42.832C90.066 42.832 90.434 42.924 90.762 43.108C91.09 43.292 91.35 43.564 91.542 43.924C91.734 44.284 91.83 44.736 91.83 45.28V49H90.81V45.52C90.81 45.088 90.746 44.748 90.618 44.5C90.49 44.252 90.322 44.076 90.114 43.972C89.906 43.868 89.67 43.816 89.406 43.816C89.134 43.816 88.862 43.888 88.59 44.032C88.318 44.176 88.09 44.396 87.906 44.692C87.722 44.98 87.63 45.352 87.63 45.808V49H86.61V45.52C86.61 45.088 86.546 44.748 86.418 44.5C86.29 44.252 86.118 44.076 85.902 43.972C85.694 43.868 85.462 43.816 85.206 43.816C84.934 43.816 84.658 43.892 84.378 44.044C84.106 44.188 83.878 44.408 83.694 44.704C83.51 44.992 83.418 45.36 83.418 45.808V49H82.398ZM95.4057 49.156C94.7737 49.156 94.2417 49.004 93.8097 48.7C93.3777 48.396 93.0897 47.972 92.9457 47.428L93.8817 47.2L94.0137 47.224C94.1017 47.528 94.2777 47.768 94.5417 47.944C94.8137 48.112 95.1297 48.196 95.4897 48.196C95.8497 48.196 96.1537 48.116 96.4017 47.956C96.6577 47.788 96.7857 47.572 96.7857 47.308C96.7857 47.092 96.7097 46.92 96.5577 46.792C96.4137 46.656 96.1937 46.556 95.8977 46.492L94.7817 46.24C94.2217 46.112 93.8057 45.904 93.5337 45.616C93.2697 45.328 93.1377 44.984 93.1377 44.584C93.1377 44.24 93.2297 43.936 93.4137 43.672C93.6057 43.408 93.8697 43.204 94.2057 43.06C94.5417 42.908 94.9217 42.832 95.3457 42.832C95.9617 42.832 96.4817 42.984 96.9057 43.288C97.3297 43.592 97.6097 44.024 97.7457 44.584L96.8097 44.776L96.6777 44.752C96.6057 44.448 96.4377 44.212 96.1737 44.044C95.9177 43.876 95.6337 43.792 95.3217 43.792C94.9937 43.792 94.7177 43.864 94.4937 44.008C94.2777 44.144 94.1697 44.324 94.1697 44.548C94.1697 44.732 94.2377 44.888 94.3737 45.016C94.5177 45.136 94.7417 45.228 95.0457 45.292L96.1737 45.556C96.7337 45.684 97.1497 45.888 97.4217 46.168C97.6937 46.448 97.8297 46.808 97.8297 47.248C97.8297 47.64 97.7217 47.98 97.5057 48.268C97.2977 48.548 97.0097 48.768 96.6417 48.928C96.2817 49.08 95.8697 49.156 95.4057 49.156Z" fill="black"/>
<path d="M38.96 89V73.136L40.16 74.264L35.864 77.696H35.672V74.888L39.032 72.2H41.36V89H38.96ZM44.5957 89V86.864L50.7157 81.032C51.2917 80.472 51.7397 79.976 52.0597 79.544C52.3957 79.112 52.6357 78.704 52.7797 78.32C52.9237 77.92 52.9957 77.512 52.9957 77.096C52.9957 76.584 52.8757 76.104 52.6357 75.656C52.3957 75.208 52.0437 74.848 51.5797 74.576C51.1317 74.304 50.5877 74.168 49.9477 74.168C49.3237 74.168 48.7557 74.32 48.2437 74.624C47.7477 74.912 47.3557 75.352 47.0677 75.944C46.7797 76.52 46.6357 77.232 46.6357 78.08L46.3717 78.128L44.2837 77.672C44.2837 76.488 44.5397 75.464 45.0517 74.6C45.5637 73.736 46.2517 73.064 47.1157 72.584C47.9797 72.104 48.9317 71.864 49.9717 71.864C51.0437 71.864 51.9877 72.104 52.8037 72.584C53.6197 73.048 54.2597 73.68 54.7237 74.48C55.1877 75.264 55.4197 76.16 55.4197 77.168C55.4197 77.808 55.3157 78.408 55.1077 78.968C54.9157 79.512 54.5877 80.08 54.1237 80.672C53.6757 81.264 53.0677 81.936 52.2997 82.688L46.9717 87.824L46.4917 86.696H55.9477V89H44.5957ZM64.3314 89V73.712L65.5554 74.336L58.2354 84.464L57.8274 83.168H68.7714V85.472H56.2914V83.264L64.2834 72.2H66.7314V89H64.3314Z" fill="black"/>
<path d="M37.96 117L38.03 116.79L40.61 110H41.42V110.08L38.71 117H37.96ZM37.96 117L35.25 110.08V110H36.06L38.64 116.79L38.71 117H37.96ZM41.9598 117V112H42.7098V117H41.9598ZM42.3398 111.02C42.1864 111.02 42.0564 110.967 41.9498 110.86C41.8431 110.753 41.7898 110.623 41.7898 110.47C41.7898 110.317 41.8431 110.187 41.9498 110.08C42.0564 109.973 42.1864 109.92 42.3398 109.92C42.4931 109.92 42.6231 109.973 42.7298 110.08C42.8364 110.187 42.8898 110.317 42.8898 110.47C42.8898 110.623 42.8364 110.753 42.7298 110.86C42.6231 110.967 42.4931 111.02 42.3398 111.02ZM46.2382 117.12C45.7649 117.12 45.3449 117.01 44.9782 116.79C44.6115 116.57 44.3249 116.263 44.1182 115.87C43.9115 115.477 43.8082 115.02 43.8082 114.5C43.8082 113.98 43.9082 113.523 44.1082 113.13C44.3149 112.737 44.5982 112.43 44.9582 112.21C45.3249 111.99 45.7449 111.88 46.2182 111.88C46.6849 111.88 47.0915 111.993 47.4382 112.22C47.7915 112.44 48.0682 112.753 48.2682 113.16C48.4682 113.56 48.5682 114.027 48.5682 114.56V114.65L48.4182 114.79H44.2482V114.06H48.1282L47.7982 114.2C47.7715 113.867 47.6849 113.583 47.5382 113.35C47.3915 113.11 47.2049 112.927 46.9782 112.8C46.7515 112.673 46.4982 112.61 46.2182 112.61C45.9115 112.61 45.6315 112.687 45.3782 112.84C45.1249 112.987 44.9249 113.197 44.7782 113.47C44.6315 113.743 44.5582 114.06 44.5582 114.42V114.55C44.5582 114.91 44.6282 115.23 44.7682 115.51C44.9149 115.783 45.1149 116 45.3682 116.16C45.6215 116.313 45.9115 116.39 46.2382 116.39C46.5649 116.39 46.8449 116.313 47.0782 116.16C47.3115 116.007 47.4949 115.797 47.6282 115.53H47.7382L48.3682 115.81C48.1815 116.21 47.9015 116.53 47.5282 116.77C47.1615 117.003 46.7315 117.12 46.2382 117.12ZM50.5295 117L48.9195 112.08V112H49.6695L51.0095 116.2L51.2295 117H50.5295ZM50.5295 117L50.8095 116.2L52.2395 112H52.9195V112.08L51.2295 117H50.5295ZM53.9295 117L52.2395 112.08V112H52.9195L54.3495 116.2L54.6295 117H53.9295ZM53.9295 117L54.1495 116.2L55.4795 112H56.2395V112.08L54.6295 117H53.9295ZM60.5613 117.12C60.2213 117.12 59.9146 117.053 59.6413 116.92C59.3746 116.787 59.1646 116.603 59.0113 116.37C58.8579 116.137 58.7813 115.867 58.7813 115.56C58.7813 115.127 58.9346 114.777 59.2413 114.51C59.5546 114.237 59.9846 114.08 60.5313 114.04L62.4513 113.9V114.6L60.7013 114.73C60.3146 114.757 60.0246 114.84 59.8313 114.98C59.6446 115.12 59.5513 115.313 59.5513 115.56C59.5513 115.8 59.6479 116 59.8413 116.16C60.0413 116.313 60.2979 116.39 60.6113 116.39C60.9246 116.39 61.2079 116.32 61.4613 116.18C61.7213 116.033 61.9246 115.84 62.0713 115.6C62.2246 115.353 62.3013 115.08 62.3013 114.78V113.97C62.3013 113.57 62.1779 113.243 61.9313 112.99C61.6913 112.73 61.3646 112.6 60.9513 112.6C60.6379 112.6 60.3679 112.677 60.1413 112.83C59.9146 112.977 59.7546 113.193 59.6613 113.48H59.5513L58.8913 113.24C59.0513 112.793 59.3113 112.453 59.6713 112.22C60.0313 111.987 60.4613 111.87 60.9613 111.87C61.6346 111.87 62.1513 112.073 62.5113 112.48C62.8713 112.88 63.0513 113.45 63.0513 114.19V117H62.3213V115.55L62.5813 115.74C62.5013 116.007 62.3613 116.247 62.1613 116.46C61.9613 116.667 61.7246 116.83 61.4513 116.95C61.1779 117.063 60.8813 117.12 60.5613 117.12ZM64.5488 117V109.8L65.2688 109.71L65.2988 109.79V117H64.5488ZM66.7949 117V109.8L67.5149 109.71L67.5449 109.79V117H66.7949ZM71.5983 117V111.28C71.5983 110.827 71.7316 110.467 71.9983 110.2C72.2649 109.933 72.6049 109.8 73.0183 109.8H73.5683V110.42L73.5183 110.53H73.1483C72.8616 110.53 72.6549 110.59 72.5283 110.71C72.4083 110.83 72.3483 111.037 72.3483 111.33V117H71.5983ZM70.7383 112.73V112H73.5683V112.73H70.7383ZM76.4049 117.12C75.9249 117.12 75.4983 117.01 75.1249 116.79C74.7583 116.57 74.4683 116.263 74.2549 115.87C74.0483 115.477 73.9449 115.02 73.9449 114.5C73.9449 113.98 74.0483 113.523 74.2549 113.13C74.4683 112.737 74.7583 112.43 75.1249 112.21C75.4983 111.99 75.9249 111.88 76.4049 111.88C76.8916 111.88 77.3183 111.99 77.6849 112.21C78.0516 112.43 78.3383 112.737 78.5449 113.13C78.7583 113.523 78.8649 113.98 78.8649 114.5C78.8649 115.02 78.7583 115.477 78.5449 115.87C78.3383 116.263 78.0516 116.57 77.6849 116.79C77.3183 117.01 76.8916 117.12 76.4049 117.12ZM76.4049 116.39C76.7383 116.39 77.0316 116.313 77.2849 116.16C77.5449 116 77.7483 115.78 77.8949 115.5C78.0416 115.213 78.1149 114.88 78.1149 114.5C78.1149 114.113 78.0416 113.78 77.8949 113.5C77.7483 113.22 77.5449 113.003 77.2849 112.85C77.0316 112.69 76.7383 112.61 76.4049 112.61C76.0716 112.61 75.7749 112.69 75.5149 112.85C75.2616 113.003 75.0616 113.22 74.9149 113.5C74.7683 113.78 74.6949 114.113 74.6949 114.5C74.6949 114.88 74.7683 115.213 74.9149 115.5C75.0616 115.78 75.2616 116 75.5149 116.16C75.7749 116.313 76.0716 116.39 76.4049 116.39ZM79.9676 117V112H80.6976V113.45L80.4776 113.26C80.5909 112.873 80.8076 112.567 81.1276 112.34C81.4542 112.113 81.8209 112 82.2276 112H82.7476V112.73H82.1076C81.8342 112.73 81.5909 112.797 81.3776 112.93C81.1709 113.063 81.0076 113.247 80.8876 113.48C80.7742 113.713 80.7176 113.987 80.7176 114.3V117H79.9676ZM83.5516 117V112H84.2816V113.45L84.0616 113.26C84.1482 112.98 84.2916 112.737 84.4916 112.53C84.6916 112.323 84.9249 112.163 85.1916 112.05C85.4582 111.937 85.7316 111.88 86.0116 111.88C86.4516 111.88 86.8282 112.007 87.1416 112.26C87.4616 112.507 87.6682 112.867 87.7616 113.34H87.4216C87.5016 113.047 87.6416 112.793 87.8416 112.58C88.0416 112.36 88.2849 112.19 88.5716 112.07C88.8649 111.943 89.1816 111.88 89.5216 111.88C89.8682 111.88 90.1749 111.957 90.4416 112.11C90.7149 112.263 90.9282 112.49 91.0816 112.79C91.2416 113.09 91.3216 113.463 91.3216 113.91V117H90.5716V114.08C90.5716 113.7 90.5149 113.407 90.4016 113.2C90.2882 112.987 90.1382 112.837 89.9516 112.75C89.7716 112.663 89.5716 112.62 89.3516 112.62C89.1116 112.62 88.8716 112.683 88.6316 112.81C88.3982 112.937 88.2016 113.127 88.0416 113.38C87.8882 113.627 87.8116 113.933 87.8116 114.3V117H87.0616V114.08C87.0616 113.7 87.0049 113.407 86.8916 113.2C86.7782 112.987 86.6282 112.837 86.4416 112.75C86.2616 112.663 86.0616 112.62 85.8416 112.62C85.6016 112.62 85.3616 112.687 85.1216 112.82C84.8882 112.947 84.6916 113.137 84.5316 113.39C84.3782 113.637 84.3016 113.94 84.3016 114.3V117H83.5516ZM94.2727 117.12C93.7593 117.12 93.326 116.997 92.9727 116.75C92.6193 116.497 92.386 116.143 92.2727 115.69L92.9627 115.52L93.0727 115.54C93.146 115.807 93.2993 116.017 93.5327 116.17C93.766 116.317 94.0393 116.39 94.3527 116.39C94.666 116.39 94.9327 116.32 95.1527 116.18C95.3793 116.033 95.4927 115.843 95.4927 115.61C95.4927 115.417 95.426 115.263 95.2927 115.15C95.166 115.03 94.9727 114.94 94.7127 114.88L93.7927 114.67C93.326 114.563 92.9827 114.393 92.7627 114.16C92.5493 113.92 92.4427 113.637 92.4427 113.31C92.4427 113.03 92.5193 112.783 92.6727 112.57C92.826 112.357 93.036 112.19 93.3027 112.07C93.576 111.943 93.886 111.88 94.2327 111.88C94.7393 111.88 95.166 112.007 95.5127 112.26C95.8593 112.513 96.0893 112.87 96.2027 113.33L95.5027 113.48L95.3927 113.46C95.326 113.187 95.1793 112.977 94.9527 112.83C94.7327 112.683 94.486 112.61 94.2127 112.61C93.926 112.61 93.686 112.673 93.4927 112.8C93.306 112.927 93.2127 113.087 93.2127 113.28C93.2127 113.447 93.2727 113.587 93.3927 113.7C93.5193 113.807 93.7193 113.89 93.9927 113.95L94.9227 114.16C95.3827 114.267 95.7193 114.437 95.9327 114.67C96.1527 114.903 96.2627 115.2 96.2627 115.56C96.2627 115.88 96.176 116.157 96.0027 116.39C95.8293 116.623 95.5927 116.803 95.2927 116.93C94.9993 117.057 94.6593 117.12 94.2727 117.12Z" fill="#A7AAB2"/>
<path d="M35 118.25H96.6027V118.75H35V118.25Z" fill="#A7AAB2"/>
<circle cx="215" cy="50" r="14" fill="#C9F961"/>
<path d="M213.875 49.0625C213.875 49.2841 213.831 49.5035 213.747 49.7083C213.662 49.913 213.537 50.099 213.381 50.2557C213.224 50.4124 213.038 50.5367 212.833 50.6215C212.629 50.7064 212.409 50.75 212.188 50.75C211.966 50.75 211.746 50.7064 211.542 50.6215C211.337 50.5367 211.151 50.4124 210.994 50.2557C210.838 50.099 210.713 49.913 210.628 49.7083C210.544 49.5035 210.5 49.2841 210.5 49.0625C210.5 48.6149 210.678 48.1857 210.994 47.8693C211.311 47.5528 211.74 47.375 212.188 47.375C212.635 47.375 213.064 47.5528 213.381 47.8693C213.697 48.1857 213.875 48.6149 213.875 49.0625ZM212.938 49.0625C212.938 48.8636 212.858 48.6728 212.718 48.5322C212.577 48.3915 212.386 48.3125 212.188 48.3125C211.989 48.3125 211.798 48.3915 211.657 48.5322C211.517 48.6728 211.438 48.8636 211.438 49.0625C211.438 49.2614 211.517 49.4522 211.657 49.5928C211.798 49.7335 211.989 49.8125 212.188 49.8125C212.386 49.8125 212.577 49.7335 212.718 49.5928C212.858 49.4522 212.938 49.2614 212.938 49.0625ZM212.188 54.875C212.635 54.875 213.064 54.6972 213.381 54.3807C213.697 54.0643 213.875 53.6351 213.875 53.1875C213.875 52.7399 213.697 52.3107 213.381 51.9943C213.064 51.6778 212.635 51.5 212.188 51.5C211.74 51.5 211.311 51.6778 210.994 51.9943C210.678 52.3107 210.5 52.7399 210.5 53.1875C210.5 53.6351 210.678 54.0643 210.994 54.3807C211.311 54.6972 211.74 54.875 212.188 54.875ZM212.188 53.9375C211.989 53.9375 211.798 53.8585 211.657 53.7178C211.517 53.5772 211.438 53.3864 211.438 53.1875C211.438 52.9886 211.517 52.7978 211.657 52.6572C211.798 52.5165 211.989 52.4375 212.188 52.4375C212.386 52.4375 212.577 52.5165 212.718 52.6572C212.858 52.7978 212.938 52.9886 212.938 53.1875C212.938 53.3864 212.858 53.5772 212.718 53.7178C212.577 53.8585 212.386 53.9375 212.188 53.9375ZM210.969 45.5C210.844 45.5 210.725 45.5494 210.637 45.6373C210.549 45.7252 210.5 45.8444 210.5 45.9688C210.5 46.0931 210.549 46.2123 210.637 46.3002C210.725 46.3881 210.844 46.4375 210.969 46.4375H219.031C219.156 46.4375 219.275 46.3881 219.363 46.3002C219.451 46.2123 219.5 46.0931 219.5 45.9688C219.5 45.8444 219.451 45.7252 219.363 45.6373C219.275 45.5494 219.156 45.5 219.031 45.5H210.969ZM214.625 49.1562C214.625 48.8975 214.835 48.6875 215.094 48.6875H219.031C219.156 48.6875 219.275 48.7369 219.363 48.8248C219.451 48.9127 219.5 49.0319 219.5 49.1562C219.5 49.2806 219.451 49.3998 219.363 49.4877C219.275 49.5756 219.156 49.625 219.031 49.625H215.094C214.835 49.625 214.625 49.415 214.625 49.1562ZM215.094 52.625C214.969 52.625 214.85 52.6744 214.762 52.7623C214.674 52.8502 214.625 52.9694 214.625 53.0938C214.625 53.2181 214.674 53.3373 214.762 53.4252C214.85 53.5131 214.969 53.5625 215.094 53.5625H219.031C219.156 53.5625 219.275 53.5131 219.363 53.4252C219.451 53.3373 219.5 53.2181 219.5 53.0938C219.5 52.9694 219.451 52.8502 219.363 52.7623C219.275 52.6744 219.156 52.625 219.031 52.625H215.094ZM210.594 43.25C209.972 43.25 209.376 43.4969 208.936 43.9365C208.497 44.376 208.25 44.9721 208.25 45.5938V54.4062C208.25 55.0279 208.497 55.624 208.936 56.0635C209.376 56.5031 209.972 56.75 210.594 56.75H219.406C220.028 56.75 220.624 56.5031 221.064 56.0635C221.503 55.624 221.75 55.0279 221.75 54.4062V45.5938C221.75 44.9721 221.503 44.376 221.064 43.9365C220.624 43.4969 220.028 43.25 219.406 43.25H210.594ZM209.188 45.5938C209.188 45.2208 209.336 44.8631 209.599 44.5994C209.863 44.3357 210.221 44.1875 210.594 44.1875H219.406C219.779 44.1875 220.137 44.3357 220.401 44.5994C220.664 44.8631 220.812 45.2208 220.812 45.5938V54.4062C220.812 54.7792 220.664 55.1369 220.401 55.4006C220.137 55.6643 219.779 55.8125 219.406 55.8125H210.594C210.221 55.8125 209.863 55.6643 209.599 55.4006C209.336 55.1369 209.188 54.7792 209.188 54.4062V45.5938Z" fill="#3D414D"/>
</g>
<defs>
<filter id="filter0_d_160_5676" x="16" y="17" width="234" height="124" filterUnits="userSpaceOnUse" color-interpolation-filters="sRGB">
<feFlood flood-opacity="0" result="BackgroundImageFix"/>
<feColorMatrix in="SourceAlpha" type="matrix" values="0 0 0 0 0 0 0 0 0 0 0 0 0 0 0 0 0 0 127 0" result="hardAlpha"/>
<feOffset dx="1" dy="1"/>
<feGaussianBlur stdDeviation="2"/>
<feComposite in2="hardAlpha" operator="out"/>
<feColorMatrix type="matrix" values="0 0 0 0 0 0 0 0 0 0 0 0 0 0 0 0 0 0 0.25 0"/>
<feBlend mode="normal" in2="BackgroundImageFix" result="effect1_dropShadow_160_5676"/>
<feBlend mode="normal" in="SourceGraphic" in2="effect1_dropShadow_160_5676" result="shape"/>
</filter>
</defs>
</svg>
