<svg width="217" height="45" viewBox="0 0 217 45" fill="none" xmlns="http://www.w3.org/2000/svg">
<rect x="0.25" y="0.25" width="216.5" height="44.5" rx="22.25" fill="#CEDFFE" fill-opacity="0.56"/>
<rect x="0.25" y="0.25" width="216.5" height="44.5" rx="22.25" stroke="black" stroke-width="0.5"/>
<path d="M35.1941 27.5V16.3H36.3941V27.5H35.1941ZM35.8181 22.492V21.324H41.6101V22.492H35.8181ZM35.8181 17.468V16.3H42.0901V17.468H35.8181ZM46.0621 27.692C45.5181 27.692 45.0274 27.5853 44.5901 27.372C44.1634 27.1587 43.8274 26.8653 43.5821 26.492C43.3367 26.1187 43.2141 25.6867 43.2141 25.196C43.2141 24.5027 43.4594 23.9427 43.9501 23.516C44.4514 23.0787 45.1394 22.828 46.0141 22.764L49.0861 22.54V23.66L46.2861 23.868C45.6674 23.9107 45.2034 24.044 44.8941 24.268C44.5954 24.492 44.4461 24.8013 44.4461 25.196C44.4461 25.58 44.6007 25.9 44.9101 26.156C45.2301 26.4013 45.6407 26.524 46.1421 26.524C46.6434 26.524 47.0967 26.412 47.5021 26.188C47.9181 25.9533 48.2434 25.644 48.4781 25.26C48.7234 24.8653 48.8461 24.428 48.8461 23.948V22.652C48.8461 22.012 48.6487 21.4893 48.2541 21.084C47.8701 20.668 47.3474 20.46 46.6861 20.46C46.1847 20.46 45.7527 20.5827 45.3901 20.828C45.0274 21.0627 44.7714 21.4093 44.6221 21.868H44.4461L43.3901 21.484C43.6461 20.7693 44.0621 20.2253 44.6381 19.852C45.2141 19.4787 45.9021 19.292 46.7021 19.292C47.7794 19.292 48.6061 19.6173 49.1821 20.268C49.7581 20.908 50.0461 21.82 50.0461 23.004V27.5H48.8781V25.18L49.2941 25.484C49.1661 25.9107 48.9421 26.2947 48.6221 26.636C48.3021 26.9667 47.9234 27.228 47.4861 27.42C47.0487 27.6013 46.5741 27.692 46.0621 27.692ZM55.7099 27.692C54.9313 27.692 54.2379 27.516 53.6299 27.164C53.0326 26.812 52.5633 26.3213 52.2219 25.692C51.8913 25.0627 51.7259 24.332 51.7259 23.5C51.7259 22.668 51.8913 21.9373 52.2219 21.308C52.5633 20.6787 53.0326 20.188 53.6299 19.836C54.2379 19.484 54.9313 19.308 55.7099 19.308C56.3073 19.308 56.8459 19.42 57.3259 19.644C57.8059 19.8573 58.2166 20.1667 58.5579 20.572C58.9099 20.9667 59.1713 21.4413 59.3419 21.996L58.2699 22.3H58.0939C57.9019 21.7347 57.5979 21.292 57.1819 20.972C56.7659 20.6413 56.2753 20.476 55.7099 20.476C55.1446 20.476 54.6539 20.604 54.2379 20.86C53.8219 21.116 53.4966 21.4733 53.2619 21.932C53.0379 22.38 52.9259 22.9027 52.9259 23.5C52.9259 24.0867 53.0379 24.6093 53.2619 25.068C53.4966 25.5267 53.8219 25.884 54.2379 26.14C54.6539 26.396 55.1446 26.524 55.7099 26.524C56.1046 26.524 56.4566 26.4547 56.7659 26.316C57.0859 26.1667 57.3633 25.9587 57.5979 25.692C57.8326 25.4147 58.0193 25.084 58.1579 24.7H58.3339L59.4059 25.004C59.2139 25.5693 58.9366 26.0547 58.5739 26.46C58.2219 26.8653 57.8059 27.1747 57.3259 27.388C56.8459 27.5907 56.3073 27.692 55.7099 27.692ZM64.4889 27.692C63.7316 27.692 63.0596 27.516 62.4729 27.164C61.8863 26.812 61.4276 26.3213 61.0969 25.692C60.7663 25.0627 60.6009 24.332 60.6009 23.5C60.6009 22.668 60.7609 21.9373 61.0809 21.308C61.4116 20.6787 61.8649 20.188 62.4409 19.836C63.0276 19.484 63.6996 19.308 64.4569 19.308C65.2036 19.308 65.8543 19.4893 66.4089 19.852C66.9743 20.204 67.4169 20.7053 67.7369 21.356C68.0569 21.996 68.2169 22.7427 68.2169 23.596V23.74L67.9769 23.964H61.3049V22.796H67.5129L66.9849 23.02C66.9423 22.4867 66.8036 22.0333 66.5689 21.66C66.3343 21.276 66.0356 20.9827 65.6729 20.78C65.3103 20.5773 64.9049 20.476 64.4569 20.476C63.9663 20.476 63.5183 20.5987 63.1129 20.844C62.7076 21.0787 62.3876 21.4147 62.1529 21.852C61.9183 22.2893 61.8009 22.796 61.8009 23.372V23.58C61.8009 24.156 61.9129 24.668 62.1369 25.116C62.3716 25.5533 62.6916 25.9 63.0969 26.156C63.5023 26.4013 63.9663 26.524 64.4889 26.524C65.0116 26.524 65.4596 26.4013 65.8329 26.156C66.2063 25.9107 66.4996 25.5747 66.7129 25.148H66.8889L67.8969 25.596C67.5983 26.236 67.1503 26.748 66.5529 27.132C65.9663 27.5053 65.2783 27.692 64.4889 27.692ZM74.0516 27.692C73.5076 27.692 73.0062 27.5853 72.5476 27.372C72.0889 27.148 71.6942 26.8387 71.3636 26.444C71.0329 26.0493 70.7876 25.5907 70.6276 25.068V21.932C70.7876 21.3987 71.0329 20.94 71.3636 20.556C71.6942 20.1613 72.0889 19.8573 72.5476 19.644C73.0062 19.42 73.5076 19.308 74.0516 19.308C74.7662 19.308 75.4062 19.4893 75.9716 19.852C76.5369 20.2147 76.9849 20.7107 77.3156 21.34C77.6569 21.9693 77.8276 22.6893 77.8276 23.5C77.8276 24.3107 77.6569 25.0307 77.3156 25.66C76.9849 26.2893 76.5369 26.7853 75.9716 27.148C75.4062 27.5107 74.7662 27.692 74.0516 27.692ZM70.0516 27.5V15.98L71.2036 15.836L71.2516 15.964V22.492L71.0276 23.5L71.2196 24.508V27.5H70.0516ZM74.0036 26.524C74.5156 26.524 74.9689 26.396 75.3636 26.14C75.7582 25.884 76.0676 25.532 76.2916 25.084C76.5156 24.6253 76.6276 24.0973 76.6276 23.5C76.6276 22.9027 76.5156 22.38 76.2916 21.932C76.0676 21.4733 75.7582 21.116 75.3636 20.86C74.9689 20.604 74.5156 20.476 74.0036 20.476C73.4809 20.476 73.0116 20.604 72.5956 20.86C72.1796 21.116 71.8489 21.4733 71.6036 21.932C71.3689 22.38 71.2516 22.9027 71.2516 23.5C71.2516 24.0973 71.3689 24.6253 71.6036 25.084C71.8489 25.532 72.1796 25.884 72.5956 26.14C73.0116 26.396 73.4809 26.524 74.0036 26.524ZM83.0369 27.692C82.2689 27.692 81.5863 27.516 80.9889 27.164C80.4023 26.812 79.9383 26.3213 79.5969 25.692C79.2663 25.0627 79.1009 24.332 79.1009 23.5C79.1009 22.668 79.2663 21.9373 79.5969 21.308C79.9383 20.6787 80.4023 20.188 80.9889 19.836C81.5863 19.484 82.2689 19.308 83.0369 19.308C83.8156 19.308 84.4983 19.484 85.0849 19.836C85.6716 20.188 86.1303 20.6787 86.4609 21.308C86.8023 21.9373 86.9729 22.668 86.9729 23.5C86.9729 24.332 86.8023 25.0627 86.4609 25.692C86.1303 26.3213 85.6716 26.812 85.0849 27.164C84.4983 27.516 83.8156 27.692 83.0369 27.692ZM83.0369 26.524C83.5703 26.524 84.0396 26.4013 84.4449 26.156C84.8609 25.9 85.1863 25.548 85.4209 25.1C85.6556 24.6413 85.7729 24.108 85.7729 23.5C85.7729 22.8813 85.6556 22.348 85.4209 21.9C85.1863 21.452 84.8609 21.1053 84.4449 20.86C84.0396 20.604 83.5703 20.476 83.0369 20.476C82.5036 20.476 82.0289 20.604 81.6129 20.86C81.2076 21.1053 80.8876 21.452 80.6529 21.9C80.4183 22.348 80.3009 22.8813 80.3009 23.5C80.3009 24.108 80.4183 24.6413 80.6529 25.1C80.8876 25.548 81.2076 25.9 81.6129 26.156C82.0289 26.4013 82.5036 26.524 83.0369 26.524ZM92.1932 27.692C91.4252 27.692 90.7425 27.516 90.1452 27.164C89.5585 26.812 89.0945 26.3213 88.7532 25.692C88.4225 25.0627 88.2572 24.332 88.2572 23.5C88.2572 22.668 88.4225 21.9373 88.7532 21.308C89.0945 20.6787 89.5585 20.188 90.1452 19.836C90.7425 19.484 91.4252 19.308 92.1932 19.308C92.9719 19.308 93.6545 19.484 94.2412 19.836C94.8279 20.188 95.2865 20.6787 95.6172 21.308C95.9585 21.9373 96.1292 22.668 96.1292 23.5C96.1292 24.332 95.9585 25.0627 95.6172 25.692C95.2865 26.3213 94.8279 26.812 94.2412 27.164C93.6545 27.516 92.9719 27.692 92.1932 27.692ZM92.1932 26.524C92.7265 26.524 93.1959 26.4013 93.6012 26.156C94.0172 25.9 94.3425 25.548 94.5772 25.1C94.8119 24.6413 94.9292 24.108 94.9292 23.5C94.9292 22.8813 94.8119 22.348 94.5772 21.9C94.3425 21.452 94.0172 21.1053 93.6012 20.86C93.1959 20.604 92.7265 20.476 92.1932 20.476C91.6599 20.476 91.1852 20.604 90.7692 20.86C90.3639 21.1053 90.0439 21.452 89.8092 21.9C89.5745 22.348 89.4572 22.8813 89.4572 23.5C89.4572 24.108 89.5745 24.6413 89.8092 25.1C90.0439 25.548 90.3639 25.9 90.7692 26.156C91.1852 26.4013 91.6599 26.524 92.1932 26.524ZM98.4534 25.852V24.268L103.381 19.5H104.805V19.628L98.4534 25.852ZM97.9734 27.5V15.98L99.1254 15.836L99.1734 15.964V27.5H97.9734ZM103.477 27.5L100.517 23.324L101.301 22.524L104.805 27.372V27.5H103.477ZM109.6 27.5V16.3H110.8V27.5H109.6ZM110.224 27.5V26.332H116.496V27.5H110.224ZM121.036 27.692C120.278 27.692 119.606 27.516 119.02 27.164C118.433 26.812 117.974 26.3213 117.644 25.692C117.313 25.0627 117.148 24.332 117.148 23.5C117.148 22.668 117.308 21.9373 117.628 21.308C117.958 20.6787 118.412 20.188 118.988 19.836C119.574 19.484 120.246 19.308 121.004 19.308C121.75 19.308 122.401 19.4893 122.956 19.852C123.521 20.204 123.964 20.7053 124.284 21.356C124.604 21.996 124.764 22.7427 124.764 23.596V23.74L124.524 23.964H117.852V22.796H124.06L123.532 23.02C123.489 22.4867 123.35 22.0333 123.116 21.66C122.881 21.276 122.582 20.9827 122.22 20.78C121.857 20.5773 121.452 20.476 121.004 20.476C120.513 20.476 120.065 20.5987 119.66 20.844C119.254 21.0787 118.934 21.4147 118.7 21.852C118.465 22.2893 118.348 22.796 118.348 23.372V23.58C118.348 24.156 118.46 24.668 118.684 25.116C118.918 25.5533 119.238 25.9 119.644 26.156C120.049 26.4013 120.513 26.524 121.036 26.524C121.558 26.524 122.006 26.4013 122.38 26.156C122.753 25.9107 123.046 25.5747 123.26 25.148H123.436L124.444 25.596C124.145 26.236 123.697 26.748 123.1 27.132C122.513 27.5053 121.825 27.692 121.036 27.692ZM129.046 27.692C128.502 27.692 128.012 27.5853 127.574 27.372C127.148 27.1587 126.812 26.8653 126.566 26.492C126.321 26.1187 126.198 25.6867 126.198 25.196C126.198 24.5027 126.444 23.9427 126.934 23.516C127.436 23.0787 128.124 22.828 128.998 22.764L132.07 22.54V23.66L129.27 23.868C128.652 23.9107 128.188 24.044 127.878 24.268C127.58 24.492 127.43 24.8013 127.43 25.196C127.43 25.58 127.585 25.9 127.894 26.156C128.214 26.4013 128.625 26.524 129.126 26.524C129.628 26.524 130.081 26.412 130.486 26.188C130.902 25.9533 131.228 25.644 131.462 25.26C131.708 24.8653 131.83 24.428 131.83 23.948V22.652C131.83 22.012 131.633 21.4893 131.238 21.084C130.854 20.668 130.332 20.46 129.67 20.46C129.169 20.46 128.737 20.5827 128.374 20.828C128.012 21.0627 127.756 21.4093 127.606 21.868H127.43L126.374 21.484C126.63 20.7693 127.046 20.2253 127.622 19.852C128.198 19.4787 128.886 19.292 129.686 19.292C130.764 19.292 131.59 19.6173 132.166 20.268C132.742 20.908 133.03 21.82 133.03 23.004V27.5H131.862V25.18L132.278 25.484C132.15 25.9107 131.926 26.2947 131.606 26.636C131.286 26.9667 130.908 27.228 130.47 27.42C130.033 27.6013 129.558 27.692 129.046 27.692ZM138.486 27.692C137.782 27.692 137.142 27.5107 136.566 27.148C136.001 26.7853 135.548 26.2893 135.206 25.66C134.876 25.0307 134.71 24.3107 134.71 23.5C134.71 22.6893 134.876 21.9693 135.206 21.34C135.548 20.7107 136.001 20.2147 136.566 19.852C137.142 19.4893 137.782 19.308 138.486 19.308C139.03 19.308 139.532 19.42 139.99 19.644C140.449 19.8573 140.844 20.1613 141.174 20.556C141.505 20.94 141.75 21.3987 141.91 21.932V25.068C141.75 25.5907 141.505 26.0493 141.174 26.444C140.844 26.8387 140.449 27.148 139.99 27.372C139.532 27.5853 139.03 27.692 138.486 27.692ZM138.534 26.524C139.068 26.524 139.537 26.396 139.942 26.14C140.358 25.884 140.684 25.532 140.918 25.084C141.164 24.6253 141.286 24.0973 141.286 23.5C141.286 22.9027 141.164 22.38 140.918 21.932C140.684 21.4733 140.358 21.116 139.942 20.86C139.537 20.604 139.068 20.476 138.534 20.476C138.033 20.476 137.58 20.604 137.174 20.86C136.78 21.116 136.47 21.4733 136.246 21.932C136.022 22.38 135.91 22.9027 135.91 23.5C135.91 24.0973 136.022 24.6253 136.246 25.084C136.47 25.532 136.78 25.884 137.174 26.14C137.58 26.396 138.033 26.524 138.534 26.524ZM141.318 27.5V24.508L141.51 23.5L141.286 22.492V15.98L142.438 15.836L142.486 15.964V27.5H141.318ZM147.36 27.692C146.538 27.692 145.845 27.4947 145.28 27.1C144.714 26.6947 144.341 26.1293 144.16 25.404L145.264 25.132L145.44 25.164C145.557 25.5907 145.802 25.9267 146.176 26.172C146.549 26.4067 146.986 26.524 147.488 26.524C147.989 26.524 148.416 26.412 148.768 26.188C149.13 25.9533 149.312 25.6493 149.312 25.276C149.312 24.9667 149.205 24.7213 148.992 24.54C148.789 24.348 148.48 24.204 148.064 24.108L146.592 23.772C145.845 23.6013 145.296 23.3293 144.944 22.956C144.602 22.572 144.432 22.1187 144.432 21.596C144.432 21.148 144.554 20.7533 144.8 20.412C145.045 20.0707 145.381 19.804 145.808 19.612C146.245 19.4093 146.741 19.308 147.296 19.308C148.106 19.308 148.789 19.5107 149.344 19.916C149.898 20.3213 150.266 20.892 150.448 21.628L149.328 21.868L149.152 21.836C149.045 21.3987 148.81 21.0627 148.448 20.828C148.096 20.5933 147.701 20.476 147.264 20.476C146.805 20.476 146.421 20.5773 146.112 20.78C145.813 20.9827 145.664 21.2387 145.664 21.548C145.664 21.8147 145.76 22.0387 145.952 22.22C146.154 22.3907 146.474 22.524 146.912 22.62L148.4 22.956C149.136 23.1267 149.674 23.3987 150.016 23.772C150.368 24.1453 150.544 24.62 150.544 25.196C150.544 25.708 150.405 26.1507 150.128 26.524C149.85 26.8973 149.472 27.1853 148.992 27.388C148.522 27.5907 147.978 27.692 147.36 27.692Z" fill="#3D414D"/>
<path d="M177.5 16.5L165.5 28.5L177.5 16.5ZM177.5 28.5L165.5 16.5L177.5 28.5Z" fill="#3D414D"/>
<path d="M177.5 16.5L165.5 28.5M177.5 28.5L165.5 16.5" stroke="#3D414D" stroke-width="1.5" stroke-linecap="round" stroke-linejoin="round"/>
</svg>
