<svg width="217" height="45" viewBox="0 0 217 45" fill="none" xmlns="http://www.w3.org/2000/svg">
<rect x="0.25" y="0.25" width="216.5" height="44.5" rx="22.25" fill="#CEDFFE" fill-opacity="0.56"/>
<rect x="0.25" y="0.25" width="216.5" height="44.5" rx="22.25" stroke="black" stroke-width="0.5"/>
<path d="M43.0727 27.5L39.4887 16.3H40.7207L44.0647 27.164L44.2087 27.5H43.0727ZM43.0727 27.5L43.1367 27.164L46.1607 16.3H47.4247V16.428L44.2087 27.5H43.0727ZM36.0007 27.5L32.7847 16.428V16.3H34.0487L37.0727 27.164L37.1367 27.5H36.0007ZM36.0007 27.5L36.1447 27.164L39.4887 16.3H40.7207L37.1367 27.5H36.0007ZM49.0984 27.5V15.98L50.2504 15.836L50.2984 15.964V21.82L49.9144 21.516C50.0531 21.068 50.2824 20.6787 50.6024 20.348C50.9224 20.0173 51.2958 19.7613 51.7224 19.58C52.1598 19.3987 52.6238 19.308 53.1144 19.308C53.6904 19.308 54.2024 19.4307 54.6504 19.676C55.0984 19.9213 55.4451 20.284 55.6904 20.764C55.9464 21.244 56.0744 21.8413 56.0744 22.556V27.5H54.8744V22.828C54.8744 22.22 54.7838 21.7507 54.6024 21.42C54.4211 21.0787 54.1758 20.8387 53.8664 20.7C53.5678 20.5613 53.2264 20.492 52.8424 20.492C52.4051 20.492 51.9891 20.5987 51.5944 20.812C51.2104 21.0253 50.8958 21.3347 50.6504 21.74C50.4158 22.1347 50.2984 22.6147 50.2984 23.18V27.5H49.0984ZM60.7652 27.692C60.2212 27.692 59.7305 27.5853 59.2932 27.372C58.8665 27.1587 58.5305 26.8653 58.2852 26.492C58.0399 26.1187 57.9172 25.6867 57.9172 25.196C57.9172 24.5027 58.1625 23.9427 58.6532 23.516C59.1545 23.0787 59.8425 22.828 60.7172 22.764L63.7892 22.54V23.66L60.9892 23.868C60.3705 23.9107 59.9065 24.044 59.5972 24.268C59.2985 24.492 59.1492 24.8013 59.1492 25.196C59.1492 25.58 59.3039 25.9 59.6132 26.156C59.9332 26.4013 60.3439 26.524 60.8452 26.524C61.3465 26.524 61.7999 26.412 62.2052 26.188C62.6212 25.9533 62.9465 25.644 63.1812 25.26C63.4265 24.8653 63.5492 24.428 63.5492 23.948V22.652C63.5492 22.012 63.3519 21.4893 62.9572 21.084C62.5732 20.668 62.0505 20.46 61.3892 20.46C60.8879 20.46 60.4559 20.5827 60.0932 20.828C59.7305 21.0627 59.4745 21.4093 59.3252 21.868H59.1492L58.0932 21.484C58.3492 20.7693 58.7652 20.2253 59.3412 19.852C59.9172 19.4787 60.6052 19.292 61.4052 19.292C62.4825 19.292 63.3092 19.6173 63.8852 20.268C64.4612 20.908 64.7492 21.82 64.7492 23.004V27.5H63.5812V25.18L63.9972 25.484C63.8692 25.9107 63.6452 26.2947 63.3252 26.636C63.0052 26.9667 62.6265 27.228 62.1892 27.42C61.7519 27.6013 61.2772 27.692 60.7652 27.692ZM69.2746 27.5C68.6132 27.5 68.0692 27.2867 67.6426 26.86C67.2159 26.4333 67.0026 25.8573 67.0026 25.132V17.324H68.2026V25.052C68.2026 25.5213 68.2986 25.852 68.4906 26.044C68.6932 26.236 69.0239 26.332 69.4826 26.332H70.4746L70.5546 26.508V27.5H69.2746ZM65.6266 20.668V19.5H70.5546V20.668H65.6266ZM74.9534 27.692C74.1321 27.692 73.4388 27.4947 72.8734 27.1C72.3081 26.6947 71.9348 26.1293 71.7534 25.404L72.8574 25.132L73.0334 25.164C73.1508 25.5907 73.3961 25.9267 73.7694 26.172C74.1428 26.4067 74.5801 26.524 75.0814 26.524C75.5828 26.524 76.0094 26.412 76.3614 26.188C76.7241 25.9533 76.9054 25.6493 76.9054 25.276C76.9054 24.9667 76.7988 24.7213 76.5854 24.54C76.3828 24.348 76.0734 24.204 75.6574 24.108L74.1854 23.772C73.4388 23.6013 72.8894 23.3293 72.5374 22.956C72.1961 22.572 72.0254 22.1187 72.0254 21.596C72.0254 21.148 72.1481 20.7533 72.3934 20.412C72.6388 20.0707 72.9748 19.804 73.4014 19.612C73.8388 19.4093 74.3348 19.308 74.8894 19.308C75.7001 19.308 76.3828 19.5107 76.9374 19.916C77.4921 20.3213 77.8601 20.892 78.0414 21.628L76.9214 21.868L76.7454 21.836C76.6388 21.3987 76.4041 21.0627 76.0414 20.828C75.6894 20.5933 75.2948 20.476 74.8574 20.476C74.3988 20.476 74.0148 20.5773 73.7054 20.78C73.4068 20.9827 73.2574 21.2387 73.2574 21.548C73.2574 21.8147 73.3534 22.0387 73.5454 22.22C73.7481 22.3907 74.0681 22.524 74.5054 22.62L75.9934 22.956C76.7294 23.1267 77.2681 23.3987 77.6094 23.772C77.9614 24.1453 78.1374 24.62 78.1374 25.196C78.1374 25.708 77.9988 26.1507 77.7214 26.524C77.4441 26.8973 77.0654 27.1853 76.5854 27.388C76.1161 27.5907 75.5721 27.692 74.9534 27.692ZM82.3277 27.692C81.7837 27.692 81.293 27.5853 80.8557 27.372C80.429 27.1587 80.093 26.8653 79.8477 26.492C79.6024 26.1187 79.4797 25.6867 79.4797 25.196C79.4797 24.5027 79.725 23.9427 80.2157 23.516C80.717 23.0787 81.405 22.828 82.2797 22.764L85.3517 22.54V23.66L82.5517 23.868C81.933 23.9107 81.469 24.044 81.1597 24.268C80.861 24.492 80.7117 24.8013 80.7117 25.196C80.7117 25.58 80.8664 25.9 81.1757 26.156C81.4957 26.4013 81.9064 26.524 82.4077 26.524C82.909 26.524 83.3624 26.412 83.7677 26.188C84.1837 25.9533 84.509 25.644 84.7437 25.26C84.989 24.8653 85.1117 24.428 85.1117 23.948V22.652C85.1117 22.012 84.9144 21.4893 84.5197 21.084C84.1357 20.668 83.613 20.46 82.9517 20.46C82.4504 20.46 82.0184 20.5827 81.6557 20.828C81.293 21.0627 81.037 21.4093 80.8877 21.868H80.7117L79.6557 21.484C79.9117 20.7693 80.3277 20.2253 80.9037 19.852C81.4797 19.4787 82.1677 19.292 82.9677 19.292C84.045 19.292 84.8717 19.6173 85.4477 20.268C86.0237 20.908 86.3117 21.82 86.3117 23.004V27.5H85.1437V25.18L85.5597 25.484C85.4317 25.9107 85.2077 26.2947 84.8877 26.636C84.5677 26.9667 84.189 27.228 83.7517 27.42C83.3144 27.6013 82.8397 27.692 82.3277 27.692ZM92.4716 27.692C91.9276 27.692 91.4262 27.5853 90.9676 27.372C90.5089 27.148 90.1142 26.8387 89.7836 26.444C89.4529 26.0493 89.2076 25.5907 89.0476 25.068V21.932C89.2076 21.3987 89.4529 20.94 89.7836 20.556C90.1142 20.1613 90.5089 19.8573 90.9676 19.644C91.4262 19.42 91.9276 19.308 92.4716 19.308C93.1862 19.308 93.8262 19.4893 94.3916 19.852C94.9569 20.2147 95.4049 20.7107 95.7356 21.34C96.0769 21.9693 96.2476 22.6893 96.2476 23.5C96.2476 24.3107 96.0769 25.0307 95.7356 25.66C95.4049 26.2893 94.9569 26.7853 94.3916 27.148C93.8262 27.5107 93.1862 27.692 92.4716 27.692ZM88.4716 30.7V19.5H89.6396V22.492L89.4476 23.5L89.6716 24.508V30.7H88.4716ZM92.4236 26.524C92.9356 26.524 93.3889 26.396 93.7836 26.14C94.1782 25.884 94.4876 25.532 94.7116 25.084C94.9356 24.6253 95.0476 24.0973 95.0476 23.5C95.0476 22.9027 94.9356 22.38 94.7116 21.932C94.4876 21.4733 94.1782 21.116 93.7836 20.86C93.3889 20.604 92.9356 20.476 92.4236 20.476C91.9009 20.476 91.4316 20.604 91.0156 20.86C90.5996 21.116 90.2689 21.4733 90.0236 21.932C89.7889 22.38 89.6716 22.9027 89.6716 23.5C89.6716 24.0973 89.7889 24.6253 90.0236 25.084C90.2689 25.532 90.5996 25.884 91.0156 26.14C91.4316 26.396 91.9009 26.524 92.4236 26.524ZM102.003 27.692C101.459 27.692 100.957 27.5853 100.499 27.372C100.04 27.148 99.6455 26.8387 99.3148 26.444C98.9841 26.0493 98.7388 25.5907 98.5788 25.068V21.932C98.7388 21.3987 98.9841 20.94 99.3148 20.556C99.6455 20.1613 100.04 19.8573 100.499 19.644C100.957 19.42 101.459 19.308 102.003 19.308C102.717 19.308 103.357 19.4893 103.923 19.852C104.488 20.2147 104.936 20.7107 105.267 21.34C105.608 21.9693 105.779 22.6893 105.779 23.5C105.779 24.3107 105.608 25.0307 105.267 25.66C104.936 26.2893 104.488 26.7853 103.923 27.148C103.357 27.5107 102.717 27.692 102.003 27.692ZM98.0028 30.7V19.5H99.1708V22.492L98.9788 23.5L99.2028 24.508V30.7H98.0028ZM101.955 26.524C102.467 26.524 102.92 26.396 103.315 26.14C103.709 25.884 104.019 25.532 104.243 25.084C104.467 24.6253 104.579 24.0973 104.579 23.5C104.579 22.9027 104.467 22.38 104.243 21.932C104.019 21.4733 103.709 21.116 103.315 20.86C102.92 20.604 102.467 20.476 101.955 20.476C101.432 20.476 100.963 20.604 100.547 20.86C100.131 21.116 99.8001 21.4733 99.5548 21.932C99.3201 22.38 99.2028 22.9027 99.2028 23.5C99.2028 24.0973 99.3201 24.6253 99.5548 25.084C99.8001 25.532 100.131 25.884 100.547 26.14C100.963 26.396 101.432 26.524 101.955 26.524ZM111.21 27.5V16.3H112.41V27.5H111.21ZM111.834 27.5V26.332H118.106V27.5H111.834ZM122.645 27.692C121.888 27.692 121.216 27.516 120.629 27.164C120.043 26.812 119.584 26.3213 119.253 25.692C118.923 25.0627 118.757 24.332 118.757 23.5C118.757 22.668 118.917 21.9373 119.237 21.308C119.568 20.6787 120.021 20.188 120.597 19.836C121.184 19.484 121.856 19.308 122.613 19.308C123.36 19.308 124.011 19.4893 124.565 19.852C125.131 20.204 125.573 20.7053 125.893 21.356C126.213 21.996 126.373 22.7427 126.373 23.596V23.74L126.133 23.964H119.461V22.796H125.669L125.141 23.02C125.099 22.4867 124.96 22.0333 124.725 21.66C124.491 21.276 124.192 20.9827 123.829 20.78C123.467 20.5773 123.061 20.476 122.613 20.476C122.123 20.476 121.675 20.5987 121.269 20.844C120.864 21.0787 120.544 21.4147 120.309 21.852C120.075 22.2893 119.957 22.796 119.957 23.372V23.58C119.957 24.156 120.069 24.668 120.293 25.116C120.528 25.5533 120.848 25.9 121.253 26.156C121.659 26.4013 122.123 26.524 122.645 26.524C123.168 26.524 123.616 26.4013 123.989 26.156C124.363 25.9107 124.656 25.5747 124.869 25.148H125.045L126.053 25.596C125.755 26.236 125.307 26.748 124.709 27.132C124.123 27.5053 123.435 27.692 122.645 27.692ZM130.656 27.692C130.112 27.692 129.621 27.5853 129.184 27.372C128.757 27.1587 128.421 26.8653 128.176 26.492C127.93 26.1187 127.808 25.6867 127.808 25.196C127.808 24.5027 128.053 23.9427 128.544 23.516C129.045 23.0787 129.733 22.828 130.608 22.764L133.68 22.54V23.66L130.88 23.868C130.261 23.9107 129.797 24.044 129.488 24.268C129.189 24.492 129.04 24.8013 129.04 25.196C129.04 25.58 129.194 25.9 129.504 26.156C129.824 26.4013 130.234 26.524 130.736 26.524C131.237 26.524 131.69 26.412 132.096 26.188C132.512 25.9533 132.837 25.644 133.072 25.26C133.317 24.8653 133.44 24.428 133.44 23.948V22.652C133.44 22.012 133.242 21.4893 132.848 21.084C132.464 20.668 131.941 20.46 131.28 20.46C130.778 20.46 130.346 20.5827 129.984 20.828C129.621 21.0627 129.365 21.4093 129.216 21.868H129.04L127.984 21.484C128.24 20.7693 128.656 20.2253 129.232 19.852C129.808 19.4787 130.496 19.292 131.296 19.292C132.373 19.292 133.2 19.6173 133.776 20.268C134.352 20.908 134.64 21.82 134.64 23.004V27.5H133.472V25.18L133.888 25.484C133.76 25.9107 133.536 26.2947 133.216 26.636C132.896 26.9667 132.517 27.228 132.08 27.42C131.642 27.6013 131.168 27.692 130.656 27.692ZM140.096 27.692C139.392 27.692 138.752 27.5107 138.176 27.148C137.61 26.7853 137.157 26.2893 136.816 25.66C136.485 25.0307 136.32 24.3107 136.32 23.5C136.32 22.6893 136.485 21.9693 136.816 21.34C137.157 20.7107 137.61 20.2147 138.176 19.852C138.752 19.4893 139.392 19.308 140.096 19.308C140.64 19.308 141.141 19.42 141.6 19.644C142.058 19.8573 142.453 20.1613 142.784 20.556C143.114 20.94 143.36 21.3987 143.52 21.932V25.068C143.36 25.5907 143.114 26.0493 142.784 26.444C142.453 26.8387 142.058 27.148 141.6 27.372C141.141 27.5853 140.64 27.692 140.096 27.692ZM140.144 26.524C140.677 26.524 141.146 26.396 141.552 26.14C141.968 25.884 142.293 25.532 142.528 25.084C142.773 24.6253 142.896 24.0973 142.896 23.5C142.896 22.9027 142.773 22.38 142.528 21.932C142.293 21.4733 141.968 21.116 141.552 20.86C141.146 20.604 140.677 20.476 140.144 20.476C139.642 20.476 139.189 20.604 138.784 20.86C138.389 21.116 138.08 21.4733 137.856 21.932C137.632 22.38 137.52 22.9027 137.52 23.5C137.52 24.0973 137.632 24.6253 137.856 25.084C138.08 25.532 138.389 25.884 138.784 26.14C139.189 26.396 139.642 26.524 140.144 26.524ZM142.928 27.5V24.508L143.12 23.5L142.896 22.492V15.98L144.048 15.836L144.096 15.964V27.5H142.928ZM148.969 27.692C148.148 27.692 147.454 27.4947 146.889 27.1C146.324 26.6947 145.95 26.1293 145.769 25.404L146.873 25.132L147.049 25.164C147.166 25.5907 147.412 25.9267 147.785 26.172C148.158 26.4067 148.596 26.524 149.097 26.524C149.598 26.524 150.025 26.412 150.377 26.188C150.74 25.9533 150.921 25.6493 150.921 25.276C150.921 24.9667 150.814 24.7213 150.601 24.54C150.398 24.348 150.089 24.204 149.673 24.108L148.201 23.772C147.454 23.6013 146.905 23.3293 146.553 22.956C146.212 22.572 146.041 22.1187 146.041 21.596C146.041 21.148 146.164 20.7533 146.409 20.412C146.654 20.0707 146.99 19.804 147.417 19.612C147.854 19.4093 148.35 19.308 148.905 19.308C149.716 19.308 150.398 19.5107 150.953 19.916C151.508 20.3213 151.876 20.892 152.057 21.628L150.937 21.868L150.761 21.836C150.654 21.3987 150.42 21.0627 150.057 20.828C149.705 20.5933 149.31 20.476 148.873 20.476C148.414 20.476 148.03 20.5773 147.721 20.78C147.422 20.9827 147.273 21.2387 147.273 21.548C147.273 21.8147 147.369 22.0387 147.561 22.22C147.764 22.3907 148.084 22.524 148.521 22.62L150.009 22.956C150.745 23.1267 151.284 23.3987 151.625 23.772C151.977 24.1453 152.153 24.62 152.153 25.196C152.153 25.708 152.014 26.1507 151.737 26.524C151.46 26.8973 151.081 27.1853 150.601 27.388C150.132 27.5907 149.588 27.692 148.969 27.692Z" fill="#3D414D"/>
<path d="M179 16.5L167 28.5L179 16.5ZM179 28.5L167 16.5L179 28.5Z" fill="#3D414D"/>
<path d="M179 16.5L167 28.5M179 28.5L167 16.5" stroke="#3D414D" stroke-width="1.5" stroke-linecap="round" stroke-linejoin="round"/>
</svg>
