<svg width="265" height="156" viewBox="0 0 265 156" fill="none" xmlns="http://www.w3.org/2000/svg">
<g filter="url(#filter0_d_160_5675)">
<rect x="19" y="20" width="226" height="116" rx="8" fill="white"/>
<path d="M38.892 49V40.6H39.924V49H38.892ZM36.288 41.584V40.6H42.516V41.584H36.288ZM45.1279 49.156C44.5439 49.156 44.0279 49.024 43.5799 48.76C43.1319 48.488 42.7799 48.116 42.5239 47.644C42.2679 47.164 42.1399 46.612 42.1399 45.988C42.1399 45.364 42.2679 44.816 42.5239 44.344C42.7799 43.864 43.1319 43.492 43.5799 43.228C44.0279 42.964 44.5439 42.832 45.1279 42.832C45.7199 42.832 46.2399 42.964 46.6879 43.228C47.1359 43.492 47.4879 43.864 47.7439 44.344C47.9999 44.816 48.1279 45.364 48.1279 45.988C48.1279 46.612 47.9999 47.164 47.7439 47.644C47.4879 48.116 47.1359 48.488 46.6879 48.76C46.2399 49.024 45.7199 49.156 45.1279 49.156ZM45.1279 48.184C45.5199 48.184 45.8599 48.096 46.1479 47.92C46.4439 47.736 46.6759 47.48 46.8439 47.152C47.0119 46.816 47.0959 46.428 47.0959 45.988C47.0959 45.54 47.0119 45.156 46.8439 44.836C46.6759 44.508 46.4439 44.256 46.1479 44.08C45.8599 43.896 45.5199 43.804 45.1279 43.804C44.7439 43.804 44.4039 43.896 44.1079 44.08C43.8119 44.256 43.5799 44.508 43.4119 44.836C43.2439 45.156 43.1599 45.54 43.1599 45.988C43.1599 46.428 43.2439 46.816 43.4119 47.152C43.5799 47.48 43.8119 47.736 44.1079 47.92C44.4039 48.096 44.7439 48.184 45.1279 48.184ZM51.4473 49C50.9273 49 50.5033 48.836 50.1753 48.508C49.8473 48.172 49.6833 47.72 49.6833 47.152V41.368H50.7033V47.068C50.7033 47.412 50.7793 47.66 50.9313 47.812C51.0833 47.956 51.3273 48.028 51.6633 48.028H52.3833L52.4433 48.16V49H51.4473ZM48.6513 43.948V42.988H52.4433V43.948H48.6513ZM55.4464 49.156C55.0304 49.156 54.6584 49.076 54.3304 48.916C54.0104 48.756 53.7584 48.536 53.5744 48.256C53.3904 47.968 53.2984 47.64 53.2984 47.272C53.2984 46.744 53.4864 46.316 53.8624 45.988C54.2464 45.66 54.7744 45.468 55.4464 45.412L57.7624 45.244V46.156L55.6504 46.324C55.2104 46.356 54.8824 46.452 54.6664 46.612C54.4584 46.764 54.3544 46.98 54.3544 47.26C54.3544 47.524 54.4664 47.744 54.6904 47.92C54.9144 48.096 55.2024 48.184 55.5544 48.184C55.9144 48.184 56.2424 48.1 56.5384 47.932C56.8344 47.764 57.0664 47.54 57.2344 47.26C57.4104 46.98 57.4984 46.668 57.4984 46.324V45.352C57.4984 44.896 57.3544 44.52 57.0664 44.224C56.7864 43.928 56.4104 43.78 55.9384 43.78C55.5704 43.78 55.2544 43.872 54.9904 44.056C54.7264 44.232 54.5464 44.48 54.4504 44.8H54.3184L53.4304 44.512C53.6064 43.976 53.9144 43.56 54.3544 43.264C54.7944 42.968 55.3264 42.82 55.9504 42.82C56.7664 42.82 57.3944 43.064 57.8344 43.552C58.2824 44.04 58.5064 44.728 58.5064 45.616V49H57.5464V47.248L57.9064 47.44C57.8104 47.768 57.6384 48.064 57.3904 48.328C57.1504 48.584 56.8624 48.788 56.5264 48.94C56.1984 49.084 55.8384 49.156 55.4464 49.156ZM60.2666 49V40.36L61.2506 40.24L61.2866 40.336V49H60.2666ZM69.339 49.156C68.579 49.156 67.907 48.976 67.323 48.616C66.739 48.248 66.279 47.74 65.943 47.092C65.615 46.436 65.451 45.672 65.451 44.8C65.451 43.92 65.615 43.156 65.943 42.508C66.279 41.86 66.739 41.356 67.323 40.996C67.907 40.628 68.579 40.444 69.339 40.444C70.147 40.444 70.867 40.66 71.499 41.092C72.131 41.516 72.599 42.124 72.903 42.916L72.015 43.168L71.883 43.144C71.651 42.584 71.315 42.16 70.875 41.872C70.435 41.584 69.931 41.44 69.363 41.44C68.811 41.44 68.319 41.576 67.887 41.848C67.455 42.12 67.115 42.508 66.867 43.012C66.619 43.516 66.495 44.112 66.495 44.8C66.495 45.488 66.619 46.084 66.867 46.588C67.115 47.092 67.455 47.48 67.887 47.752C68.319 48.024 68.811 48.16 69.363 48.16C69.931 48.16 70.435 48.016 70.875 47.728C71.315 47.432 71.651 47.008 71.883 46.456L72.015 46.432L72.903 46.684C72.599 47.476 72.131 48.088 71.499 48.52C70.867 48.944 70.147 49.156 69.339 49.156ZM76.8154 49.156C76.2314 49.156 75.7154 49.024 75.2674 48.76C74.8194 48.488 74.4674 48.116 74.2114 47.644C73.9554 47.164 73.8274 46.612 73.8274 45.988C73.8274 45.364 73.9554 44.816 74.2114 44.344C74.4674 43.864 74.8194 43.492 75.2674 43.228C75.7154 42.964 76.2314 42.832 76.8154 42.832C77.4074 42.832 77.9274 42.964 78.3754 43.228C78.8234 43.492 79.1754 43.864 79.4314 44.344C79.6874 44.816 79.8154 45.364 79.8154 45.988C79.8154 46.612 79.6874 47.164 79.4314 47.644C79.1754 48.116 78.8234 48.488 78.3754 48.76C77.9274 49.024 77.4074 49.156 76.8154 49.156ZM76.8154 48.184C77.2074 48.184 77.5474 48.096 77.8354 47.92C78.1314 47.736 78.3634 47.48 78.5314 47.152C78.6994 46.816 78.7834 46.428 78.7834 45.988C78.7834 45.54 78.6994 45.156 78.5314 44.836C78.3634 44.508 78.1314 44.256 77.8354 44.08C77.5474 43.896 77.2074 43.804 76.8154 43.804C76.4314 43.804 76.0914 43.896 75.7954 44.08C75.4994 44.256 75.2674 44.508 75.0994 44.836C74.9314 45.156 74.8474 45.54 74.8474 45.988C74.8474 46.428 74.9314 46.816 75.0994 47.152C75.2674 47.48 75.4994 47.736 75.7954 47.92C76.0914 48.096 76.4314 48.184 76.8154 48.184ZM81.1012 49V42.988H82.0852V44.68L81.7972 44.5C81.9092 44.156 82.0852 43.86 82.3252 43.612C82.5652 43.364 82.8452 43.172 83.1652 43.036C83.4932 42.9 83.8412 42.832 84.2092 42.832C84.6412 42.832 85.0252 42.924 85.3612 43.108C85.7052 43.292 85.9732 43.564 86.1652 43.924C86.3572 44.284 86.4532 44.736 86.4532 45.28V49H85.4332V45.532C85.4332 45.1 85.3692 44.76 85.2412 44.512C85.1132 44.256 84.9372 44.076 84.7132 43.972C84.4972 43.868 84.2492 43.816 83.9692 43.816C83.6652 43.816 83.3692 43.892 83.0812 44.044C82.8012 44.188 82.5692 44.408 82.3852 44.704C82.2092 45 82.1212 45.368 82.1212 45.808V49H81.1012ZM89.8731 49C89.3531 49 88.9291 48.836 88.6011 48.508C88.2731 48.172 88.1091 47.72 88.1091 47.152V41.368H89.1291V47.068C89.1291 47.412 89.2051 47.66 89.3571 47.812C89.5091 47.956 89.7531 48.028 90.0891 48.028H90.8091L90.8691 48.16V49H89.8731ZM87.0771 43.948V42.988H90.8691V43.948H87.0771ZM93.8722 49.156C93.4562 49.156 93.0842 49.076 92.7562 48.916C92.4362 48.756 92.1842 48.536 92.0002 48.256C91.8162 47.968 91.7242 47.64 91.7242 47.272C91.7242 46.744 91.9122 46.316 92.2882 45.988C92.6722 45.66 93.2002 45.468 93.8722 45.412L96.1882 45.244V46.156L94.0762 46.324C93.6362 46.356 93.3082 46.452 93.0922 46.612C92.8842 46.764 92.7802 46.98 92.7802 47.26C92.7802 47.524 92.8922 47.744 93.1162 47.92C93.3402 48.096 93.6282 48.184 93.9802 48.184C94.3402 48.184 94.6682 48.1 94.9642 47.932C95.2602 47.764 95.4922 47.54 95.6602 47.26C95.8362 46.98 95.9242 46.668 95.9242 46.324V45.352C95.9242 44.896 95.7802 44.52 95.4922 44.224C95.2122 43.928 94.8362 43.78 94.3642 43.78C93.9962 43.78 93.6802 43.872 93.4162 44.056C93.1522 44.232 92.9722 44.48 92.8762 44.8H92.7442L91.8562 44.512C92.0322 43.976 92.3402 43.56 92.7802 43.264C93.2202 42.968 93.7522 42.82 94.3762 42.82C95.1922 42.82 95.8202 43.064 96.2602 43.552C96.7082 44.04 96.9322 44.728 96.9322 45.616V49H95.9722V47.248L96.3322 47.44C96.2362 47.768 96.0642 48.064 95.8162 48.328C95.5762 48.584 95.2882 48.788 94.9522 48.94C94.6242 49.084 94.2642 49.156 93.8722 49.156ZM101.203 49.156C100.603 49.156 100.075 49.024 99.6192 48.76C99.1632 48.488 98.8072 48.116 98.5512 47.644C98.2952 47.172 98.1672 46.62 98.1672 45.988C98.1672 45.364 98.2952 44.816 98.5512 44.344C98.8072 43.864 99.1632 43.492 99.6192 43.228C100.075 42.964 100.603 42.832 101.203 42.832C101.659 42.832 102.067 42.916 102.427 43.084C102.795 43.244 103.107 43.476 103.363 43.78C103.627 44.076 103.823 44.44 103.951 44.872L103.063 45.124H102.931C102.795 44.716 102.571 44.396 102.259 44.164C101.955 43.924 101.603 43.804 101.203 43.804C100.795 43.804 100.439 43.896 100.135 44.08C99.8392 44.264 99.6072 44.52 99.4392 44.848C99.2712 45.176 99.1872 45.556 99.1872 45.988C99.1872 46.42 99.2712 46.804 99.4392 47.14C99.6072 47.468 99.8392 47.724 100.135 47.908C100.439 48.092 100.795 48.184 101.203 48.184C101.483 48.184 101.739 48.132 101.971 48.028C102.203 47.924 102.403 47.772 102.571 47.572C102.747 47.372 102.883 47.136 102.979 46.864H103.111L104.011 47.116C103.867 47.548 103.659 47.92 103.387 48.232C103.115 48.536 102.795 48.768 102.427 48.928C102.067 49.08 101.659 49.156 101.203 49.156ZM107.264 49C106.744 49 106.32 48.836 105.992 48.508C105.664 48.172 105.5 47.72 105.5 47.152V41.368H106.52V47.068C106.52 47.412 106.596 47.66 106.748 47.812C106.9 47.956 107.144 48.028 107.48 48.028H108.2L108.26 48.16V49H107.264ZM104.468 43.948V42.988H108.26V43.948H104.468ZM111.593 49.156C110.961 49.156 110.429 49.004 109.997 48.7C109.565 48.396 109.277 47.972 109.133 47.428L110.069 47.2L110.201 47.224C110.289 47.528 110.465 47.768 110.729 47.944C111.001 48.112 111.317 48.196 111.677 48.196C112.037 48.196 112.341 48.116 112.589 47.956C112.845 47.788 112.973 47.572 112.973 47.308C112.973 47.092 112.897 46.92 112.745 46.792C112.601 46.656 112.381 46.556 112.085 46.492L110.969 46.24C110.409 46.112 109.993 45.904 109.721 45.616C109.457 45.328 109.325 44.984 109.325 44.584C109.325 44.24 109.417 43.936 109.601 43.672C109.793 43.408 110.057 43.204 110.393 43.06C110.729 42.908 111.109 42.832 111.533 42.832C112.149 42.832 112.669 42.984 113.093 43.288C113.517 43.592 113.797 44.024 113.933 44.584L112.997 44.776L112.865 44.752C112.793 44.448 112.625 44.212 112.361 44.044C112.105 43.876 111.821 43.792 111.509 43.792C111.181 43.792 110.905 43.864 110.681 44.008C110.465 44.144 110.357 44.324 110.357 44.548C110.357 44.732 110.425 44.888 110.561 45.016C110.705 45.136 110.929 45.228 111.233 45.292L112.361 45.556C112.921 45.684 113.337 45.888 113.609 46.168C113.881 46.448 114.017 46.808 114.017 47.248C114.017 47.64 113.909 47.98 113.693 48.268C113.485 48.548 113.197 48.768 112.829 48.928C112.469 49.08 112.057 49.156 111.593 49.156Z" fill="black"/>
<path d="M39.96 89V73.136L41.16 74.264L36.864 77.696H36.672V74.888L40.032 72.2H42.36V89H39.96ZM51.7397 89.336C50.4437 89.336 49.3237 88.984 48.3797 88.28C47.4357 87.56 46.6997 86.552 46.1717 85.256C45.6597 83.944 45.4037 82.392 45.4037 80.6C45.4037 78.808 45.6597 77.264 46.1717 75.968C46.6997 74.656 47.4357 73.648 48.3797 72.944C49.3237 72.224 50.4437 71.864 51.7397 71.864C53.0357 71.864 54.1557 72.224 55.0997 72.944C56.0597 73.648 56.7957 74.656 57.3077 75.968C57.8197 77.264 58.0757 78.808 58.0757 80.6C58.0757 82.392 57.8197 83.944 57.3077 85.256C56.7957 86.552 56.0597 87.56 55.0997 88.28C54.1557 88.984 53.0357 89.336 51.7397 89.336ZM51.7397 87.032C52.5397 87.032 53.2277 86.776 53.8037 86.264C54.3957 85.736 54.8517 84.992 55.1717 84.032C55.4917 83.072 55.6517 81.928 55.6517 80.6C55.6517 79.272 55.4917 78.128 55.1717 77.168C54.8517 76.208 54.3957 75.472 53.8037 74.96C53.2277 74.432 52.5397 74.168 51.7397 74.168C50.9397 74.168 50.2437 74.432 49.6517 74.96C49.0757 75.472 48.6277 76.208 48.3077 77.168C47.9877 78.128 47.8277 79.272 47.8277 80.6C47.8277 81.928 47.9877 83.072 48.3077 84.032C48.6277 84.992 49.0757 85.736 49.6517 86.264C50.2437 86.776 50.9397 87.032 51.7397 87.032ZM59.7759 92.528V90.872C60.3519 90.76 60.7999 90.512 61.1199 90.128C61.4399 89.76 61.5999 89.336 61.5999 88.856C61.5999 88.568 61.5519 88.296 61.4559 88.04L62.5119 87.44C62.5439 87.568 62.5599 87.688 62.5599 87.8C62.5759 87.896 62.5839 87.992 62.5839 88.088C62.5839 88.408 62.4959 88.656 62.3199 88.832C62.1599 88.992 61.9759 89.096 61.7679 89.144C61.5759 89.192 61.4399 89.216 61.3599 89.216C60.8639 89.216 60.4559 89.056 60.1359 88.736C59.8319 88.4 59.6799 88.016 59.6799 87.584C59.6799 87.104 59.8319 86.704 60.1359 86.384C60.4559 86.048 60.8639 85.88 61.3599 85.88C61.7599 85.88 62.1039 86 62.3919 86.24C62.6799 86.48 62.8959 86.8 63.0399 87.2C63.1999 87.584 63.2799 88 63.2799 88.448C63.2799 88.816 63.2159 89.216 63.0879 89.648C62.9599 90.096 62.7599 90.52 62.4879 90.92C62.2319 91.336 61.8799 91.688 61.4319 91.976C60.9839 92.264 60.4319 92.448 59.7759 92.528ZM65.7519 89V86.864L71.8719 81.032C72.4479 80.472 72.8959 79.976 73.2159 79.544C73.5519 79.112 73.7919 78.704 73.9359 78.32C74.0799 77.92 74.1519 77.512 74.1519 77.096C74.1519 76.584 74.0319 76.104 73.7919 75.656C73.5519 75.208 73.1999 74.848 72.7359 74.576C72.2879 74.304 71.7439 74.168 71.1039 74.168C70.4799 74.168 69.9119 74.32 69.3999 74.624C68.9039 74.912 68.5119 75.352 68.2239 75.944C67.9359 76.52 67.7919 77.232 67.7919 78.08L67.5279 78.128L65.4399 77.672C65.4399 76.488 65.6959 75.464 66.2079 74.6C66.7199 73.736 67.4079 73.064 68.2719 72.584C69.1359 72.104 70.0879 71.864 71.1279 71.864C72.1999 71.864 73.1439 72.104 73.9599 72.584C74.7759 73.048 75.4159 73.68 75.8799 74.48C76.3439 75.264 76.5759 76.16 76.5759 77.168C76.5759 77.808 76.4719 78.408 76.2639 78.968C76.0719 79.512 75.7439 80.08 75.2799 80.672C74.8319 81.264 74.2239 81.936 73.4559 82.688L68.1279 87.824L67.6479 86.696H77.1039V89H65.7519ZM84.7078 89.336C83.5558 89.336 82.5318 89.104 81.6358 88.64C80.7558 88.176 80.0598 87.528 79.5478 86.696C79.0358 85.848 78.7638 84.856 78.7318 83.72L80.8678 83.264L81.1318 83.312C81.1318 84.048 81.2758 84.696 81.5638 85.256C81.8518 85.816 82.2598 86.256 82.7878 86.576C83.3158 86.88 83.9478 87.032 84.6838 87.032C85.3398 87.032 85.9078 86.912 86.3878 86.672C86.8838 86.432 87.2678 86.104 87.5398 85.688C87.8118 85.256 87.9478 84.744 87.9478 84.152C87.9478 83.224 87.6198 82.512 86.9638 82.016C86.3238 81.504 85.4918 81.248 84.4678 81.248H83.1958V79.064H84.5158C85.3958 79.064 86.1238 78.848 86.6998 78.416C87.2758 77.984 87.5638 77.376 87.5638 76.592C87.5638 76.112 87.4438 75.688 87.2038 75.32C86.9638 74.952 86.6278 74.664 86.1958 74.456C85.7638 74.248 85.2678 74.144 84.7078 74.144C84.0678 74.144 83.5078 74.28 83.0278 74.552C82.5638 74.824 82.1878 75.208 81.8998 75.704C81.6278 76.184 81.4758 76.752 81.4438 77.408L81.1798 77.456L79.0918 77.024C79.1238 76.048 79.3798 75.176 79.8598 74.408C80.3398 73.624 80.9958 73.008 81.8278 72.56C82.6758 72.096 83.6438 71.864 84.7318 71.864C85.7558 71.864 86.6598 72.064 87.4438 72.464C88.2438 72.848 88.8678 73.376 89.3158 74.048C89.7798 74.72 90.0118 75.488 90.0118 76.352C90.0118 77.52 89.6438 78.448 88.9078 79.136C88.1718 79.824 87.2118 80.232 86.0278 80.36V79.856C86.9238 79.856 87.6998 80.048 88.3558 80.432C89.0118 80.816 89.5158 81.344 89.8678 82.016C90.2198 82.688 90.3958 83.464 90.3958 84.344C90.3958 85.304 90.1638 86.16 89.6998 86.912C89.2358 87.664 88.5718 88.256 87.7078 88.688C86.8598 89.12 85.8598 89.336 84.7078 89.336ZM100.089 89V73.712L101.313 74.336L93.9932 84.464L93.5852 83.168H104.529V85.472H92.0492V83.264L100.041 72.2H102.489V89H100.089Z" fill="black"/>
<path d="M38.96 117L39.03 116.79L41.61 110H42.42V110.08L39.71 117H38.96ZM38.96 117L36.25 110.08V110H37.06L39.64 116.79L39.71 117H38.96ZM42.9598 117V112H43.7098V117H42.9598ZM43.3398 111.02C43.1864 111.02 43.0564 110.967 42.9498 110.86C42.8431 110.753 42.7898 110.623 42.7898 110.47C42.7898 110.317 42.8431 110.187 42.9498 110.08C43.0564 109.973 43.1864 109.92 43.3398 109.92C43.4931 109.92 43.6231 109.973 43.7298 110.08C43.8364 110.187 43.8898 110.317 43.8898 110.47C43.8898 110.623 43.8364 110.753 43.7298 110.86C43.6231 110.967 43.4931 111.02 43.3398 111.02ZM47.2382 117.12C46.7649 117.12 46.3449 117.01 45.9782 116.79C45.6115 116.57 45.3249 116.263 45.1182 115.87C44.9115 115.477 44.8082 115.02 44.8082 114.5C44.8082 113.98 44.9082 113.523 45.1082 113.13C45.3149 112.737 45.5982 112.43 45.9582 112.21C46.3249 111.99 46.7449 111.88 47.2182 111.88C47.6849 111.88 48.0915 111.993 48.4382 112.22C48.7915 112.44 49.0682 112.753 49.2682 113.16C49.4682 113.56 49.5682 114.027 49.5682 114.56V114.65L49.4182 114.79H45.2482V114.06H49.1282L48.7982 114.2C48.7715 113.867 48.6849 113.583 48.5382 113.35C48.3915 113.11 48.2049 112.927 47.9782 112.8C47.7515 112.673 47.4982 112.61 47.2182 112.61C46.9115 112.61 46.6315 112.687 46.3782 112.84C46.1249 112.987 45.9249 113.197 45.7782 113.47C45.6315 113.743 45.5582 114.06 45.5582 114.42V114.55C45.5582 114.91 45.6282 115.23 45.7682 115.51C45.9149 115.783 46.1149 116 46.3682 116.16C46.6215 116.313 46.9115 116.39 47.2382 116.39C47.5649 116.39 47.8449 116.313 48.0782 116.16C48.3115 116.007 48.4949 115.797 48.6282 115.53H48.7382L49.3682 115.81C49.1815 116.21 48.9015 116.53 48.5282 116.77C48.1615 117.003 47.7315 117.12 47.2382 117.12ZM51.5295 117L49.9195 112.08V112H50.6695L52.0095 116.2L52.2295 117H51.5295ZM51.5295 117L51.8095 116.2L53.2395 112H53.9195V112.08L52.2295 117H51.5295ZM54.9295 117L53.2395 112.08V112H53.9195L55.3495 116.2L55.6295 117H54.9295ZM54.9295 117L55.1495 116.2L56.4795 112H57.2395V112.08L55.6295 117H54.9295ZM61.5613 117.12C61.2213 117.12 60.9146 117.053 60.6413 116.92C60.3746 116.787 60.1646 116.603 60.0113 116.37C59.8579 116.137 59.7813 115.867 59.7813 115.56C59.7813 115.127 59.9346 114.777 60.2413 114.51C60.5546 114.237 60.9846 114.08 61.5313 114.04L63.4513 113.9V114.6L61.7013 114.73C61.3146 114.757 61.0246 114.84 60.8313 114.98C60.6446 115.12 60.5513 115.313 60.5513 115.56C60.5513 115.8 60.6479 116 60.8413 116.16C61.0413 116.313 61.2979 116.39 61.6113 116.39C61.9246 116.39 62.2079 116.32 62.4613 116.18C62.7213 116.033 62.9246 115.84 63.0713 115.6C63.2246 115.353 63.3013 115.08 63.3013 114.78V113.97C63.3013 113.57 63.1779 113.243 62.9313 112.99C62.6913 112.73 62.3646 112.6 61.9513 112.6C61.6379 112.6 61.3679 112.677 61.1413 112.83C60.9146 112.977 60.7546 113.193 60.6613 113.48H60.5513L59.8913 113.24C60.0513 112.793 60.3113 112.453 60.6713 112.22C61.0313 111.987 61.4613 111.87 61.9613 111.87C62.6346 111.87 63.1513 112.073 63.5113 112.48C63.8713 112.88 64.0513 113.45 64.0513 114.19V117H63.3213V115.55L63.5813 115.74C63.5013 116.007 63.3613 116.247 63.1613 116.46C62.9613 116.667 62.7246 116.83 62.4513 116.95C62.1779 117.063 61.8813 117.12 61.5613 117.12ZM65.5488 117V109.8L66.2688 109.71L66.2988 109.79V117H65.5488ZM67.7949 117V109.8L68.5149 109.71L68.5449 109.79V117H67.7949ZM74.3783 117.12C73.8916 117.12 73.4583 117.01 73.0783 116.79C72.7049 116.57 72.4116 116.263 72.1983 115.87C71.9916 115.477 71.8883 115.02 71.8883 114.5C71.8883 113.98 71.9916 113.523 72.1983 113.13C72.4116 112.737 72.7049 112.43 73.0783 112.21C73.4583 111.99 73.8916 111.88 74.3783 111.88C74.7516 111.88 75.0883 111.95 75.3883 112.09C75.6883 112.223 75.9449 112.417 76.1583 112.67C76.3783 112.917 76.5416 113.213 76.6483 113.56L75.9783 113.75H75.8683C75.7483 113.397 75.5583 113.12 75.2983 112.92C75.0383 112.713 74.7316 112.61 74.3783 112.61C74.0249 112.61 73.7183 112.69 73.4583 112.85C73.1983 113.01 72.9949 113.233 72.8483 113.52C72.7083 113.8 72.6383 114.127 72.6383 114.5C72.6383 114.867 72.7083 115.193 72.8483 115.48C72.9949 115.767 73.1983 115.99 73.4583 116.15C73.7183 116.31 74.0249 116.39 74.3783 116.39C74.6249 116.39 74.8449 116.347 75.0383 116.26C75.2383 116.167 75.4116 116.037 75.5583 115.87C75.7049 115.697 75.8216 115.49 75.9083 115.25H76.0183L76.6883 115.44C76.5683 115.793 76.3949 116.097 76.1683 116.35C75.9483 116.603 75.6883 116.797 75.3883 116.93C75.0883 117.057 74.7516 117.12 74.3783 117.12ZM79.8952 117.12C79.4152 117.12 78.9885 117.01 78.6152 116.79C78.2485 116.57 77.9585 116.263 77.7452 115.87C77.5385 115.477 77.4352 115.02 77.4352 114.5C77.4352 113.98 77.5385 113.523 77.7452 113.13C77.9585 112.737 78.2485 112.43 78.6152 112.21C78.9885 111.99 79.4152 111.88 79.8952 111.88C80.3818 111.88 80.8085 111.99 81.1752 112.21C81.5418 112.43 81.8285 112.737 82.0352 113.13C82.2485 113.523 82.3552 113.98 82.3552 114.5C82.3552 115.02 82.2485 115.477 82.0352 115.87C81.8285 116.263 81.5418 116.57 81.1752 116.79C80.8085 117.01 80.3818 117.12 79.8952 117.12ZM79.8952 116.39C80.2285 116.39 80.5218 116.313 80.7752 116.16C81.0352 116 81.2385 115.78 81.3852 115.5C81.5318 115.213 81.6052 114.88 81.6052 114.5C81.6052 114.113 81.5318 113.78 81.3852 113.5C81.2385 113.22 81.0352 113.003 80.7752 112.85C80.5218 112.69 80.2285 112.61 79.8952 112.61C79.5618 112.61 79.2652 112.69 79.0052 112.85C78.7518 113.003 78.5518 113.22 78.4052 113.5C78.2585 113.78 78.1852 114.113 78.1852 114.5C78.1852 114.88 78.2585 115.213 78.4052 115.5C78.5518 115.78 78.7518 116 79.0052 116.16C79.2652 116.313 79.5618 116.39 79.8952 116.39ZM83.4578 117V112H84.1878V113.45L83.9678 113.26C84.0545 112.98 84.1978 112.737 84.3978 112.53C84.5978 112.323 84.8311 112.163 85.0978 112.05C85.3711 111.937 85.6611 111.88 85.9678 111.88C86.3278 111.88 86.6478 111.957 86.9278 112.11C87.2078 112.263 87.4245 112.49 87.5778 112.79C87.7378 113.09 87.8178 113.463 87.8178 113.91V117H87.0678V114.08C87.0678 113.7 87.0111 113.407 86.8978 113.2C86.7845 112.987 86.6311 112.837 86.4378 112.75C86.2511 112.663 86.0378 112.62 85.7978 112.62C85.5245 112.62 85.2645 112.687 85.0178 112.82C84.7778 112.953 84.5811 113.147 84.4278 113.4C84.2811 113.647 84.2078 113.947 84.2078 114.3V117H83.4578ZM90.6491 117C90.2358 117 89.8958 116.867 89.6291 116.6C89.3625 116.333 89.2291 115.973 89.2291 115.52V110.64H89.9791V115.47C89.9791 115.763 90.0391 115.97 90.1591 116.09C90.2858 116.21 90.4925 116.27 90.7791 116.27H91.3991L91.4491 116.38V117H90.6491ZM88.3691 112.73V112H91.4491V112.73H88.3691ZM93.9831 117.12C93.6431 117.12 93.3365 117.053 93.0631 116.92C92.7965 116.787 92.5865 116.603 92.4331 116.37C92.2798 116.137 92.2031 115.867 92.2031 115.56C92.2031 115.127 92.3565 114.777 92.6631 114.51C92.9765 114.237 93.4065 114.08 93.9531 114.04L95.8731 113.9V114.6L94.1231 114.73C93.7365 114.757 93.4465 114.84 93.2531 114.98C93.0665 115.12 92.9731 115.313 92.9731 115.56C92.9731 115.8 93.0698 116 93.2631 116.16C93.4631 116.313 93.7198 116.39 94.0331 116.39C94.3465 116.39 94.6298 116.32 94.8831 116.18C95.1431 116.033 95.3465 115.84 95.4931 115.6C95.6465 115.353 95.7231 115.08 95.7231 114.78V113.97C95.7231 113.57 95.5998 113.243 95.3531 112.99C95.1131 112.73 94.7865 112.6 94.3731 112.6C94.0598 112.6 93.7898 112.677 93.5631 112.83C93.3365 112.977 93.1765 113.193 93.0831 113.48H92.9731L92.3131 113.24C92.4731 112.793 92.7331 112.453 93.0931 112.22C93.4531 111.987 93.8831 111.87 94.3831 111.87C95.0565 111.87 95.5731 112.073 95.9331 112.48C96.2931 112.88 96.4731 113.45 96.4731 114.19V117H95.7431V115.55L96.0031 115.74C95.9231 116.007 95.7831 116.247 95.5831 116.46C95.3831 116.667 95.1465 116.83 94.8731 116.95C94.5998 117.063 94.3031 117.12 93.9831 117.12ZM100.013 117.12C99.5264 117.12 99.093 117.01 98.713 116.79C98.3397 116.57 98.0464 116.263 97.833 115.87C97.6264 115.477 97.523 115.02 97.523 114.5C97.523 113.98 97.6264 113.523 97.833 113.13C98.0464 112.737 98.3397 112.43 98.713 112.21C99.093 111.99 99.5264 111.88 100.013 111.88C100.386 111.88 100.723 111.95 101.023 112.09C101.323 112.223 101.58 112.417 101.793 112.67C102.013 112.917 102.176 113.213 102.283 113.56L101.613 113.75H101.503C101.383 113.397 101.193 113.12 100.933 112.92C100.673 112.713 100.366 112.61 100.013 112.61C99.6597 112.61 99.353 112.69 99.093 112.85C98.833 113.01 98.6297 113.233 98.483 113.52C98.343 113.8 98.273 114.127 98.273 114.5C98.273 114.867 98.343 115.193 98.483 115.48C98.6297 115.767 98.833 115.99 99.093 116.15C99.353 116.31 99.6597 116.39 100.013 116.39C100.26 116.39 100.48 116.347 100.673 116.26C100.873 116.167 101.046 116.037 101.193 115.87C101.34 115.697 101.456 115.49 101.543 115.25H101.653L102.323 115.44C102.203 115.793 102.03 116.097 101.803 116.35C101.583 116.603 101.323 116.797 101.023 116.93C100.723 117.057 100.386 117.12 100.013 117.12ZM105.005 117C104.591 117 104.251 116.867 103.985 116.6C103.718 116.333 103.585 115.973 103.585 115.52V110.64H104.335V115.47C104.335 115.763 104.395 115.97 104.515 116.09C104.641 116.21 104.848 116.27 105.135 116.27H105.755L105.805 116.38V117H105.005ZM102.725 112.73V112H105.805V112.73H102.725ZM108.554 117.12C108.041 117.12 107.607 116.997 107.254 116.75C106.901 116.497 106.667 116.143 106.554 115.69L107.244 115.52L107.354 115.54C107.427 115.807 107.581 116.017 107.814 116.17C108.047 116.317 108.321 116.39 108.634 116.39C108.947 116.39 109.214 116.32 109.434 116.18C109.661 116.033 109.774 115.843 109.774 115.61C109.774 115.417 109.707 115.263 109.574 115.15C109.447 115.03 109.254 114.94 108.994 114.88L108.074 114.67C107.607 114.563 107.264 114.393 107.044 114.16C106.831 113.92 106.724 113.637 106.724 113.31C106.724 113.03 106.801 112.783 106.954 112.57C107.107 112.357 107.317 112.19 107.584 112.07C107.857 111.943 108.167 111.88 108.514 111.88C109.021 111.88 109.447 112.007 109.794 112.26C110.141 112.513 110.371 112.87 110.484 113.33L109.784 113.48L109.674 113.46C109.607 113.187 109.461 112.977 109.234 112.83C109.014 112.683 108.767 112.61 108.494 112.61C108.207 112.61 107.967 112.673 107.774 112.8C107.587 112.927 107.494 113.087 107.494 113.28C107.494 113.447 107.554 113.587 107.674 113.7C107.801 113.807 108.001 113.89 108.274 113.95L109.204 114.16C109.664 114.267 110.001 114.437 110.214 114.67C110.434 114.903 110.544 115.2 110.544 115.56C110.544 115.88 110.457 116.157 110.284 116.39C110.111 116.623 109.874 116.803 109.574 116.93C109.281 117.057 108.941 117.12 108.554 117.12Z" fill="#A7AAB2"/>
<path d="M36 118.25H110.884V118.75H36V118.25Z" fill="#A7AAB2"/>
<circle cx="214" cy="50" r="14" fill="#3B7FFB"/>
<path d="M211 44V42.5M217 44V42.5M214 57.5C210.995 57.5 209.492 57.5 208.559 56.5115C207.625 55.523 207.625 53.9315 207.625 50.75C207.625 47.5685 207.625 45.977 208.559 44.9885C209.492 44 210.995 44 214 44C217.005 44 218.507 44 219.441 44.9885C220.375 45.977 220.375 47.5685 220.375 50.75C220.375 53.9315 220.375 55.523 219.441 56.5115C218.507 57.5 217.005 57.5 214 57.5Z" stroke="#F0F0F2" stroke-width="1.125" stroke-linecap="round" stroke-linejoin="round"/>
<path d="M215.513 48.1198C215.513 48.5176 215.355 48.8991 215.074 49.1804C214.793 49.4617 214.411 49.6198 214.013 49.6198C213.616 49.6198 213.234 49.4617 212.953 49.1804C212.671 48.8991 212.513 48.5176 212.513 48.1198C212.513 47.7219 212.671 47.3404 212.953 47.0591C213.234 46.7778 213.616 46.6198 214.013 46.6198C214.411 46.6198 214.793 46.7778 215.074 47.0591C215.355 47.3404 215.513 47.7219 215.513 48.1198ZM211.047 53.537C211.841 52.3145 213.101 51.857 214.013 51.8578C214.925 51.8585 216.149 52.3153 216.943 53.5378C216.994 53.6165 217.008 53.7133 216.962 53.7958C216.776 54.125 216.2 54.7783 215.784 54.8225C215.306 54.8728 214.054 54.8803 214.014 54.8803C213.974 54.8803 212.685 54.8728 212.207 54.8225C211.79 54.7775 211.214 54.125 211.028 53.795C210.982 53.7133 210.996 53.6165 211.047 53.537Z" stroke="#F0F0F2" stroke-width="1.125" stroke-linecap="round" stroke-linejoin="round"/>
</g>
<defs>
<filter id="filter0_d_160_5675" x="16" y="17" width="234" height="124" filterUnits="userSpaceOnUse" color-interpolation-filters="sRGB">
<feFlood flood-opacity="0" result="BackgroundImageFix"/>
<feColorMatrix in="SourceAlpha" type="matrix" values="0 0 0 0 0 0 0 0 0 0 0 0 0 0 0 0 0 0 127 0" result="hardAlpha"/>
<feOffset dx="1" dy="1"/>
<feGaussianBlur stdDeviation="2"/>
<feComposite in2="hardAlpha" operator="out"/>
<feColorMatrix type="matrix" values="0 0 0 0 0 0 0 0 0 0 0 0 0 0 0 0 0 0 0.25 0"/>
<feBlend mode="normal" in2="BackgroundImageFix" result="effect1_dropShadow_160_5675"/>
<feBlend mode="normal" in="SourceGraphic" in2="effect1_dropShadow_160_5675" result="shape"/>
</filter>
</defs>
</svg>
