<svg width="217" height="45" viewBox="0 0 217 45" fill="none" xmlns="http://www.w3.org/2000/svg">
<rect x="0.25" y="0.25" width="216.5" height="44.5" rx="22.25" fill="#CEDFFE" fill-opacity="0.89"/>
<rect x="0.25" y="0.25" width="216.5" height="44.5" rx="22.25" stroke="black" stroke-width="0.5"/>
<path d="M34.1274 27.5L30.5434 16.3H31.7754L35.1194 27.164L35.2634 27.5H34.1274ZM34.1274 27.5L34.1914 27.164L37.2154 16.3H38.4794V16.428L35.2634 27.5H34.1274ZM27.0554 27.5L23.8394 16.428V16.3H25.1034L28.1274 27.164L28.1914 27.5H27.0554ZM27.0554 27.5L27.1994 27.164L30.5434 16.3H31.7754L28.1914 27.5H27.0554ZM43.1686 27.692C42.4113 27.692 41.7393 27.516 41.1526 27.164C40.566 26.812 40.1073 26.3213 39.7766 25.692C39.446 25.0627 39.2806 24.332 39.2806 23.5C39.2806 22.668 39.4406 21.9373 39.7606 21.308C40.0913 20.6787 40.5446 20.188 41.1206 19.836C41.7073 19.484 42.3793 19.308 43.1366 19.308C43.8833 19.308 44.534 19.4893 45.0886 19.852C45.654 20.204 46.0966 20.7053 46.4166 21.356C46.7366 21.996 46.8966 22.7427 46.8966 23.596V23.74L46.6566 23.964H39.9846V22.796H46.1926L45.6646 23.02C45.622 22.4867 45.4833 22.0333 45.2486 21.66C45.014 21.276 44.7153 20.9827 44.3526 20.78C43.99 20.5773 43.5846 20.476 43.1366 20.476C42.646 20.476 42.198 20.5987 41.7926 20.844C41.3873 21.0787 41.0673 21.4147 40.8326 21.852C40.598 22.2893 40.4806 22.796 40.4806 23.372V23.58C40.4806 24.156 40.5926 24.668 40.8166 25.116C41.0513 25.5533 41.3713 25.9 41.7766 26.156C42.182 26.4013 42.646 26.524 43.1686 26.524C43.6913 26.524 44.1393 26.4013 44.5126 26.156C44.886 25.9107 45.1793 25.5747 45.3926 25.148H45.5686L46.5766 25.596C46.278 26.236 45.83 26.748 45.2326 27.132C44.646 27.5053 43.958 27.692 43.1686 27.692ZM52.7313 27.692C52.1873 27.692 51.6859 27.5853 51.2273 27.372C50.7686 27.148 50.3739 26.8387 50.0433 26.444C49.7126 26.0493 49.4673 25.5907 49.3073 25.068V21.932C49.4673 21.3987 49.7126 20.94 50.0433 20.556C50.3739 20.1613 50.7686 19.8573 51.2273 19.644C51.6859 19.42 52.1873 19.308 52.7313 19.308C53.4459 19.308 54.0859 19.4893 54.6513 19.852C55.2166 20.2147 55.6646 20.7107 55.9953 21.34C56.3366 21.9693 56.5073 22.6893 56.5073 23.5C56.5073 24.3107 56.3366 25.0307 55.9953 25.66C55.6646 26.2893 55.2166 26.7853 54.6513 27.148C54.0859 27.5107 53.4459 27.692 52.7313 27.692ZM48.7313 27.5V15.98L49.8832 15.836L49.9313 15.964V22.492L49.7073 23.5L49.8993 24.508V27.5H48.7313ZM52.6833 26.524C53.1953 26.524 53.6486 26.396 54.0433 26.14C54.4379 25.884 54.7473 25.532 54.9713 25.084C55.1953 24.6253 55.3073 24.0973 55.3073 23.5C55.3073 22.9027 55.1953 22.38 54.9713 21.932C54.7473 21.4733 54.4379 21.116 54.0433 20.86C53.6486 20.604 53.1953 20.476 52.6833 20.476C52.1606 20.476 51.6913 20.604 51.2753 20.86C50.8593 21.116 50.5286 21.4733 50.2833 21.932C50.0486 22.38 49.9313 22.9027 49.9313 23.5C49.9313 24.0973 50.0486 24.6253 50.2833 25.084C50.5286 25.532 50.8593 25.884 51.2753 26.14C51.6913 26.396 52.1606 26.524 52.6833 26.524ZM58.2606 27.5V19.5H59.4606V27.5H58.2606ZM58.8686 17.932C58.6233 17.932 58.4153 17.8467 58.2446 17.676C58.074 17.5053 57.9886 17.2973 57.9886 17.052C57.9886 16.8067 58.074 16.5987 58.2446 16.428C58.4153 16.2573 58.6233 16.172 58.8686 16.172C59.114 16.172 59.322 16.2573 59.4926 16.428C59.6633 16.5987 59.7486 16.8067 59.7486 17.052C59.7486 17.2973 59.6633 17.5053 59.4926 17.676C59.322 17.8467 59.114 17.932 58.8686 17.932ZM61.6981 27.5V19.5H62.8661V21.82L62.5141 21.516C62.6528 21.068 62.8821 20.6787 63.2021 20.348C63.5221 20.0173 63.8955 19.7613 64.3221 19.58C64.7595 19.3987 65.2235 19.308 65.7141 19.308C66.2901 19.308 66.8021 19.4307 67.2501 19.676C67.6981 19.9213 68.0448 20.284 68.2901 20.764C68.5461 21.244 68.6741 21.8413 68.6741 22.556V27.5H67.4741V22.828C67.4741 22.22 67.3835 21.7507 67.2021 21.42C67.0208 21.0787 66.7755 20.8387 66.4661 20.7C66.1675 20.5613 65.8261 20.492 65.4421 20.492C65.0048 20.492 64.5888 20.5987 64.1941 20.812C63.8101 21.0253 63.4955 21.3347 63.2501 21.74C63.0155 22.1347 62.8981 22.6147 62.8981 23.18V27.5H61.6981ZM73.3668 27.692C72.8228 27.692 72.3321 27.5853 71.8948 27.372C71.4681 27.1587 71.1321 26.8653 70.8868 26.492C70.6414 26.1187 70.5188 25.6867 70.5188 25.196C70.5188 24.5027 70.7641 23.9427 71.2548 23.516C71.7561 23.0787 72.4441 22.828 73.3188 22.764L76.3908 22.54V23.66L73.5908 23.868C72.9721 23.9107 72.5081 24.044 72.1988 24.268C71.9001 24.492 71.7508 24.8013 71.7508 25.196C71.7508 25.58 71.9054 25.9 72.2148 26.156C72.5348 26.4013 72.9454 26.524 73.4468 26.524C73.9481 26.524 74.4014 26.412 74.8068 26.188C75.2228 25.9533 75.5481 25.644 75.7828 25.26C76.0281 24.8653 76.1508 24.428 76.1508 23.948V22.652C76.1508 22.012 75.9534 21.4893 75.5588 21.084C75.1748 20.668 74.6521 20.46 73.9908 20.46C73.4894 20.46 73.0574 20.5827 72.6948 20.828C72.3321 21.0627 72.0761 21.4093 71.9268 21.868H71.7508L70.6948 21.484C70.9508 20.7693 71.3668 20.2253 71.9428 19.852C72.5188 19.4787 73.2068 19.292 74.0068 19.292C75.0841 19.292 75.9108 19.6173 76.4868 20.268C77.0628 20.908 77.3508 21.82 77.3508 23.004V27.5H76.1828V25.18L76.5988 25.484C76.4708 25.9107 76.2468 26.2947 75.9268 26.636C75.6068 26.9667 75.2281 27.228 74.7908 27.42C74.3534 27.6013 73.8788 27.692 73.3668 27.692ZM79.5106 27.5V19.5H80.6786V21.82L80.3266 21.516C80.508 20.8973 80.8546 20.4067 81.3666 20.044C81.8893 19.6813 82.476 19.5 83.1266 19.5H83.9586V20.668H82.9346C82.4973 20.668 82.108 20.7747 81.7666 20.988C81.436 21.2013 81.1746 21.4947 80.9826 21.868C80.8013 22.2413 80.7106 22.6787 80.7106 23.18V27.5H79.5106ZM95.6523 27.5L91.6043 16.636L91.4923 16.3H92.6923L96.9483 27.372V27.5H95.6523ZM87.2363 27.5V27.372L91.4923 16.3H92.6923L92.5803 16.636L88.5323 27.5H87.2363ZM88.8043 24.54L89.2843 23.372H95.0603L95.5403 24.54H88.8043ZM101.079 27.5C100.418 27.5 99.8739 27.2867 99.4473 26.86C99.0206 26.4333 98.8073 25.8573 98.8073 25.132V17.324H100.007V25.052C100.007 25.5213 100.103 25.852 100.295 26.044C100.498 26.236 100.829 26.332 101.287 26.332H102.279L102.359 26.508V27.5H101.079ZM97.4313 20.668V19.5H102.359V20.668H97.4313ZM107.126 27.5C106.465 27.5 105.921 27.2867 105.494 26.86C105.067 26.4333 104.854 25.8573 104.854 25.132V17.324H106.054V25.052C106.054 25.5213 106.15 25.852 106.342 26.044C106.545 26.236 106.875 26.332 107.334 26.332H108.326L108.406 26.508V27.5H107.126ZM103.478 20.668V19.5H108.406V20.668H103.478ZM113.341 27.692C112.583 27.692 111.911 27.516 111.325 27.164C110.738 26.812 110.279 26.3213 109.949 25.692C109.618 25.0627 109.453 24.332 109.453 23.5C109.453 22.668 109.613 21.9373 109.933 21.308C110.263 20.6787 110.717 20.188 111.293 19.836C111.879 19.484 112.551 19.308 113.309 19.308C114.055 19.308 114.706 19.4893 115.261 19.852C115.826 20.204 116.269 20.7053 116.589 21.356C116.909 21.996 117.069 22.7427 117.069 23.596V23.74L116.829 23.964H110.157V22.796H116.365L115.837 23.02C115.794 22.4867 115.655 22.0333 115.421 21.66C115.186 21.276 114.887 20.9827 114.525 20.78C114.162 20.5773 113.757 20.476 113.309 20.476C112.818 20.476 112.37 20.5987 111.965 20.844C111.559 21.0787 111.239 21.4147 111.005 21.852C110.77 22.2893 110.653 22.796 110.653 23.372V23.58C110.653 24.156 110.765 24.668 110.989 25.116C111.223 25.5533 111.543 25.9 111.949 26.156C112.354 26.4013 112.818 26.524 113.341 26.524C113.863 26.524 114.311 26.4013 114.685 26.156C115.058 25.9107 115.351 25.5747 115.565 25.148H115.741L116.749 25.596C116.45 26.236 116.002 26.748 115.405 27.132C114.818 27.5053 114.13 27.692 113.341 27.692ZM118.823 27.5V19.5H119.991V21.82L119.639 21.516C119.778 21.068 120.007 20.6787 120.327 20.348C120.647 20.0173 121.02 19.7613 121.447 19.58C121.884 19.3987 122.348 19.308 122.839 19.308C123.415 19.308 123.927 19.4307 124.375 19.676C124.823 19.9213 125.17 20.284 125.415 20.764C125.671 21.244 125.799 21.8413 125.799 22.556V27.5H124.599V22.828C124.599 22.22 124.508 21.7507 124.327 21.42C124.146 21.0787 123.9 20.8387 123.591 20.7C123.292 20.5613 122.951 20.492 122.567 20.492C122.13 20.492 121.714 20.5987 121.319 20.812C120.935 21.0253 120.62 21.3347 120.375 21.74C120.14 22.1347 120.023 22.6147 120.023 23.18V27.5H118.823ZM131.26 27.692C130.556 27.692 129.916 27.5107 129.34 27.148C128.774 26.7853 128.321 26.2893 127.98 25.66C127.649 25.0307 127.484 24.3107 127.484 23.5C127.484 22.6893 127.649 21.9693 127.98 21.34C128.321 20.7107 128.774 20.2147 129.34 19.852C129.916 19.4893 130.556 19.308 131.26 19.308C131.804 19.308 132.305 19.42 132.764 19.644C133.222 19.8573 133.617 20.1613 133.948 20.556C134.278 20.94 134.524 21.3987 134.684 21.932V25.068C134.524 25.5907 134.278 26.0493 133.948 26.444C133.617 26.8387 133.222 27.148 132.764 27.372C132.305 27.5853 131.804 27.692 131.26 27.692ZM131.308 26.524C131.841 26.524 132.31 26.396 132.716 26.14C133.132 25.884 133.457 25.532 133.692 25.084C133.937 24.6253 134.06 24.0973 134.06 23.5C134.06 22.9027 133.937 22.38 133.692 21.932C133.457 21.4733 133.132 21.116 132.716 20.86C132.31 20.604 131.841 20.476 131.308 20.476C130.806 20.476 130.353 20.604 129.948 20.86C129.553 21.116 129.244 21.4733 129.02 21.932C128.796 22.38 128.684 22.9027 128.684 23.5C128.684 24.0973 128.796 24.6253 129.02 25.084C129.244 25.532 129.553 25.884 129.948 26.14C130.353 26.396 130.806 26.524 131.308 26.524ZM134.092 27.5V24.508L134.284 23.5L134.06 22.492V15.98L135.212 15.836L135.26 15.964V27.5H134.092ZM140.981 27.692C140.224 27.692 139.552 27.516 138.965 27.164C138.378 26.812 137.92 26.3213 137.589 25.692C137.258 25.0627 137.093 24.332 137.093 23.5C137.093 22.668 137.253 21.9373 137.573 21.308C137.904 20.6787 138.357 20.188 138.933 19.836C139.52 19.484 140.192 19.308 140.949 19.308C141.696 19.308 142.346 19.4893 142.901 19.852C143.466 20.204 143.909 20.7053 144.229 21.356C144.549 21.996 144.709 22.7427 144.709 23.596V23.74L144.469 23.964H137.797V22.796H144.005L143.477 23.02C143.434 22.4867 143.296 22.0333 143.061 21.66C142.826 21.276 142.528 20.9827 142.165 20.78C141.802 20.5773 141.397 20.476 140.949 20.476C140.458 20.476 140.01 20.5987 139.605 20.844C139.2 21.0787 138.88 21.4147 138.645 21.852C138.41 22.2893 138.293 22.796 138.293 23.372V23.58C138.293 24.156 138.405 24.668 138.629 25.116C138.864 25.5533 139.184 25.9 139.589 26.156C139.994 26.4013 140.458 26.524 140.981 26.524C141.504 26.524 141.952 26.4013 142.325 26.156C142.698 25.9107 142.992 25.5747 143.205 25.148H143.381L144.389 25.596C144.09 26.236 143.642 26.748 143.045 27.132C142.458 27.5053 141.77 27.692 140.981 27.692ZM149.872 27.692C149.114 27.692 148.442 27.516 147.856 27.164C147.269 26.812 146.81 26.3213 146.48 25.692C146.149 25.0627 145.984 24.332 145.984 23.5C145.984 22.668 146.144 21.9373 146.464 21.308C146.794 20.6787 147.248 20.188 147.824 19.836C148.41 19.484 149.082 19.308 149.84 19.308C150.586 19.308 151.237 19.4893 151.792 19.852C152.357 20.204 152.8 20.7053 153.12 21.356C153.44 21.996 153.6 22.7427 153.6 23.596V23.74L153.36 23.964H146.688V22.796H152.896L152.368 23.02C152.325 22.4867 152.186 22.0333 151.952 21.66C151.717 21.276 151.418 20.9827 151.056 20.78C150.693 20.5773 150.288 20.476 149.84 20.476C149.349 20.476 148.901 20.5987 148.496 20.844C148.09 21.0787 147.77 21.4147 147.536 21.852C147.301 22.2893 147.184 22.796 147.184 23.372V23.58C147.184 24.156 147.296 24.668 147.52 25.116C147.754 25.5533 148.074 25.9 148.48 26.156C148.885 26.4013 149.349 26.524 149.872 26.524C150.394 26.524 150.842 26.4013 151.216 26.156C151.589 25.9107 151.882 25.5747 152.096 25.148H152.272L153.28 25.596C152.981 26.236 152.533 26.748 151.936 27.132C151.349 27.5053 150.661 27.692 149.872 27.692ZM157.914 27.692C157.093 27.692 156.4 27.4947 155.834 27.1C155.269 26.6947 154.896 26.1293 154.714 25.404L155.818 25.132L155.994 25.164C156.112 25.5907 156.357 25.9267 156.73 26.172C157.104 26.4067 157.541 26.524 158.042 26.524C158.544 26.524 158.97 26.412 159.322 26.188C159.685 25.9533 159.866 25.6493 159.866 25.276C159.866 24.9667 159.76 24.7213 159.546 24.54C159.344 24.348 159.034 24.204 158.618 24.108L157.146 23.772C156.4 23.6013 155.85 23.3293 155.498 22.956C155.157 22.572 154.986 22.1187 154.986 21.596C154.986 21.148 155.109 20.7533 155.354 20.412C155.6 20.0707 155.936 19.804 156.362 19.612C156.8 19.4093 157.296 19.308 157.85 19.308C158.661 19.308 159.344 19.5107 159.898 19.916C160.453 20.3213 160.821 20.892 161.002 21.628L159.882 21.868L159.706 21.836C159.6 21.3987 159.365 21.0627 159.002 20.828C158.65 20.5933 158.256 20.476 157.818 20.476C157.36 20.476 156.976 20.5773 156.666 20.78C156.368 20.9827 156.218 21.2387 156.218 21.548C156.218 21.8147 156.314 22.0387 156.506 22.22C156.709 22.3907 157.029 22.524 157.466 22.62L158.954 22.956C159.69 23.1267 160.229 23.3987 160.57 23.772C160.922 24.1453 161.098 24.62 161.098 25.196C161.098 25.708 160.96 26.1507 160.682 26.524C160.405 26.8973 160.026 27.1853 159.546 27.388C159.077 27.5907 158.533 27.692 157.914 27.692Z" fill="#3D414D"/>
<path d="M188 16.5L176 28.5L188 16.5ZM188 28.5L176 16.5L188 28.5Z" fill="#3D414D"/>
<path d="M188 16.5L176 28.5M188 28.5L176 16.5" stroke="#3D414D" stroke-width="1.5" stroke-linecap="round" stroke-linejoin="round"/>
</svg>
